<svg xmlns="http://www.w3.org/2000/svg" viewBox="0 0 28.25 90.36"><title>Asset 2</title><g id="Layer_2" data-name="Layer 2"><g id="Layer_1-2" data-name="Layer 1"><path d="M22.78,90.24c.09-.76.17-1.53.23-2.29L24,88c-.06.78-.14,1.56-.24,2.33Zm.36-4.59c0-.64,0-1.28,0-1.93v-.37h1v.38c0,.66,0,1.31,0,2ZM23,78.76l1-.1c.07.78.12,1.56.16,2.34l-1,0C23.07,80.29,23,79.52,23,78.76Zm-.61-4.56,1-.18q.21,1.16.36,2.31l-1,.14C22.59,75.71,22.47,75,22.34,74.2Zm-1-4.5,1-.26c.2.76.38,1.52.55,2.28l-1,.22C21.72,71.19,21.54,70.44,21.34,69.7ZM20,65.31l1-.34c.26.73.51,1.47.74,2.22l-1,.3C20.48,66.76,20.23,66,20,65.31ZM18.24,61l.92-.42c.33.72.64,1.43.93,2.16l-.94.38C18.87,62.45,18.56,61.74,18.24,61Zm-2.08-4.1.88-.49c.38.68.75,1.37,1.11,2.06l-.9.46C16.9,58.29,16.54,57.61,16.16,56.94ZM13.73,53l.83-.57c.44.64.87,1.3,1.28,2L15,55Q14.38,54,13.73,53ZM11,49.32l.8-.62c.47.62,1,1.24,1.41,1.86l-.81.6C11.93,50.54,11.46,49.93,11,49.32Zm-1.53-2L8.13,45.65l.8-.61,1.33,1.7.1.13-.8.62Zm-4.1-5.47.84-.57c.43.63.88,1.25,1.34,1.87l-.82.6C6.26,43.17,5.8,42.53,5.36,41.89Zm-2.45-4,.89-.47c.34.64.73,1.31,1.14,2l-.86.52Q3.43,38.88,2.91,37.88ZM1.06,33.53l1-.31a20.5,20.5,0,0,0,.8,2.13l-.93.4A22.22,22.22,0,0,1,1.06,33.53Zm-1-4.65,1-.09A20.84,20.84,0,0,0,1.44,31l-1,.2A22.94,22.94,0,0,1,.1,28.88ZM0,26.51a23.54,23.54,0,0,1,.14-2.37l1,.11C1.06,25,1,25.77,1,26.52ZM.52,21.8a22.67,22.67,0,0,1,.6-2.29l1,.3c-.22.72-.42,1.46-.58,2.2ZM2,17.28A23.2,23.2,0,0,1,3,15.16l.88.49c-.36.65-.7,1.34-1,2Zm2.32-4.13a20.49,20.49,0,0,1,1.47-1.87L6.5,12a20.41,20.41,0,0,0-1.41,1.78ZM7.41,9.59a22.27,22.27,0,0,1,1.84-1.5l.6.82a20.68,20.68,0,0,0-1.76,1.43ZM11.24,6.8a22.27,22.27,0,0,1,2.12-1.09l.41.92c-.69.32-1.37.66-2,1Zm4.32-1.95a22.93,22.93,0,0,1,2.29-.65l.22,1a20.74,20.74,0,0,0-2.18.61Zm9.28-.17.08-1A23.07,23.07,0,0,1,27.28,4l-.19,1A21,21,0,0,0,24.84,4.68Zm-4.66-.89a23.62,23.62,0,0,1,2.37-.18l0,1a21.48,21.48,0,0,0-2.26.17Z"/><polygon points="23.27 8.18 22.69 7.34 26.79 4.51 23.66 0.63 24.45 0 28.25 4.72 23.27 8.18"/></g></g></svg>