<svg xmlns="http://www.w3.org/2000/svg" viewBox="0 0 28.25 90.36"><title>Asset 1</title><g id="Layer_2" data-name="Layer 2"><g id="Layer_1-2" data-name="Layer 1"><path d="M4.48,90.36c-.1-.77-.18-1.55-.24-2.33l1-.08c.06.76.14,1.53.24,2.29ZM4.1,85.69c0-.66,0-1.31,0-2v-.38h1v.37c0,.65,0,1.29,0,1.93Zm1-4.64-1,0c0-.78.1-1.56.17-2.34l1,.1C5.23,79.52,5.18,80.29,5.14,81.05Zm.42-4.58-1-.14q.17-1.15.36-2.31l1,.18C5.78,75,5.67,75.71,5.56,76.47Zm.81-4.53-1-.22c.17-.76.36-1.52.56-2.28l1,.26C6.72,70.44,6.54,71.19,6.37,71.94Zm1.18-4.45-1-.3c.23-.75.48-1.49.74-2.22l.95.34C8,66,7.78,66.76,7.55,67.49ZM9.1,63.16l-.94-.38c.3-.73.61-1.44.93-2.16L10,61C9.69,61.74,9.39,62.45,9.1,63.16ZM11,59l-.9-.46c.35-.69.72-1.38,1.11-2.06l.88.49C11.72,57.61,11.36,58.29,11,59Zm2.26-4-.86-.53c.41-.66.84-1.32,1.29-2l.83.57Q13.87,54,13.27,55Zm2.6-3.8-.81-.6q.69-.93,1.41-1.86l.8.62C16.79,49.93,16.33,50.54,15.87,51.16Zm2.82-3.67-.79-.62.1-.13L19.32,45l.8.61-1.33,1.71Zm2.84-3.7-.81-.6c.46-.62.91-1.24,1.34-1.87l.83.57C22.45,42.53,22,43.17,21.53,43.79Zm2.64-3.87-.86-.52c.42-.68.8-1.35,1.14-2l.9.47C25,38.55,24.6,39.23,24.17,39.92Zm2.2-4.17-.93-.4c.3-.71.57-1.42.8-2.13l1,.31C27,34.27,26.68,35,26.37,35.75Zm1.43-4.52-1-.2a20.86,20.86,0,0,0,.34-2.24l1,.09A20.48,20.48,0,0,1,27.8,31.23Zm-.56-4.71a21.59,21.59,0,0,0-.13-2.27l1-.11a20.93,20.93,0,0,1,.14,2.37ZM26.75,22c-.16-.74-.35-1.48-.58-2.2l1-.3c.24.75.44,1.52.61,2.29Zm-1.37-4.33a21.31,21.31,0,0,0-1-2l.88-.49a20.88,20.88,0,0,1,1.05,2.12Zm-2.22-3.95A20.31,20.31,0,0,0,21.76,12l.76-.67A22.4,22.4,0,0,1,24,13.15Zm-3-3.39c-.56-.5-1.15-1-1.76-1.43L19,8.09a22.27,22.27,0,0,1,1.84,1.5ZM16.5,7.67c-.65-.38-1.33-.72-2-1l.42-.92A23.36,23.36,0,0,1,17,6.8ZM12.37,5.8a20.91,20.91,0,0,0-2.19-.61l.23-1a22.75,22.75,0,0,1,2.28.65ZM1.17,5,1,4a22.87,22.87,0,0,1,2.35-.31l.08,1A20.79,20.79,0,0,0,1.17,5ZM8,4.79a21.87,21.87,0,0,0-2.27-.17l0-1a23.42,23.42,0,0,1,2.36.18Z"/><polygon points="4.99 8.18 5.56 7.34 1.47 4.51 4.59 0.63 3.81 0 0 4.72 4.99 8.18"/></g></g></svg>