<?xml version="1.0" encoding="utf-8"?>
<!-- Generator: Adobe Illustrator 23.0.1, SVG Export Plug-In . SVG Version: 6.00 Build 0)  -->
<svg version="1.1" id="Layer_1" xmlns="http://www.w3.org/2000/svg" xmlns:xlink="http://www.w3.org/1999/xlink" x="0px" y="0px"
	 viewBox="0 0 750 500" style="enable-background:new 0 0 750 500;" xml:space="preserve">
<style type="text/css">
	.st0{fill:#E0E0E0;}
	.st1{fill:#EBEBEB;}
	.st2{fill:#E6E6E6;}
	.st3{fill:none;stroke:#E0E0E0;stroke-width:0.75;stroke-miterlimit:10;}
	.st4{fill:none;stroke:#E0E0E0;stroke-width:0.75;stroke-linecap:round;stroke-linejoin:round;}
	.st5{fill:none;stroke:#E0E0E0;stroke-width:0.5;stroke-linecap:round;stroke-linejoin:round;}
	.st6{fill:#F5F5F5;}
	.st7{fill:#FAFAFA;}
	.st8{fill:#C62127;}
	.st9{opacity:0.8;fill:#FFFFFF;enable-background:new    ;}
	.st10{fill:#FFFFFF;}
	.st11{opacity:0.2;enable-background:new    ;}
	.st12{fill:none;stroke:#C62127;stroke-width:0.5;stroke-miterlimit:10;}
	.st13{fill:#263238;}
	.st14{fill:none;stroke:#C62127;stroke-width:0.5;stroke-linecap:round;stroke-linejoin:round;}
	.st15{opacity:0.3;enable-background:new    ;}
	.st16{opacity:0.6;fill:#FFFFFF;enable-background:new    ;}
	.st17{opacity:0.7;fill:#FFFFFF;enable-background:new    ;}
	.st18{fill:#E9B376;}
	.st19{fill:none;stroke:#C62127;stroke-width:0.25;stroke-miterlimit:10;}
	.st20{opacity:0.2;fill:#FFFFFF;enable-background:new    ;}
	.st21{opacity:0.6;enable-background:new    ;}
	.st22{opacity:0.4;fill:#FFFFFF;enable-background:new    ;}
	.st23{opacity:0.2;fill:#263238;enable-background:new    ;}
	.st24{opacity:0.3;}
	.st25{fill:#D58745;}
	.st26{opacity:0.1;fill:none;stroke:#000000;stroke-width:0.5;stroke-miterlimit:10;enable-background:new    ;}
	.st27{fill:#C15854;}
	.st28{fill:none;}
	.st29{fill:none;stroke:#FFFFFF;stroke-width:2;stroke-linecap:round;stroke-linejoin:round;}
	.st30{opacity:0.4;fill:#263238;enable-background:new    ;}
	.st31{fill:#8E4F42;}
	.st32{fill:none;stroke:#263238;stroke-width:0.5;stroke-linecap:round;stroke-linejoin:round;}
	.st33{fill:#B74D3C;}
	.st34{opacity:0.1;enable-background:new    ;}
	.st35{opacity:0.6;}
</style>
<g id="freepik--background-complete--inject-2">
	<g>
		<g>
			<g>
				<g>
					<path class="st0" d="M673.7,332.5H493c-3.2,0-5.9-2.6-5.9-5.9V63.3c0-3.2,2.6-5.9,5.9-5.9h180.7c3.2,0,5.9,2.6,5.9,5.9v263.3
						C679.6,329.8,677,332.5,673.7,332.5z M493,57.7c-3.1,0-5.6,2.5-5.6,5.6v263.3c0,3.1,2.5,5.6,5.6,5.6h180.7
						c3.1,0,5.6-2.5,5.6-5.6V63.3c0-3.1-2.5-5.6-5.6-5.6H493L493,57.7z"/>
					<path class="st0" d="M465.3,332.5H284.6c-3.2,0-5.9-2.6-5.9-5.9V63.3c0-3.2,2.6-5.9,5.9-5.9h180.7c3.2,0,5.9,2.6,5.9,5.9v263.3
						C471.2,329.8,468.5,332.5,465.3,332.5z M284.6,57.7c-3.1,0-5.6,2.5-5.6,5.6v263.3c0,3.1,2.5,5.6,5.6,5.6h180.7
						c3.1,0,5.6-2.5,5.6-5.6V63.3c0-3.1-2.5-5.6-5.6-5.6H284.6z"/>
				</g>
				<path class="st0" d="M257,332.5H76.3c-3.2,0-5.9-2.6-5.9-5.9V63.3c0-3.2,2.6-5.9,5.9-5.9H257c3.2,0,5.9,2.6,5.9,5.9v263.3
					C262.9,329.8,260.2,332.5,257,332.5z M76.3,57.7c-3.1,0-5.6,2.5-5.6,5.6v263.3c0,3.1,2.5,5.6,5.6,5.6H257c3.1,0,5.6-2.5,5.6-5.6
					V63.3c0-3.1-2.5-5.6-5.6-5.6H76.3z"/>
			</g>
			<rect y="393.5" class="st0" width="750" height="0.1"/>
		</g>
		<g>
			<rect x="653.6" y="422.9" class="st1" width="55.7" height="0.4"/>
			<rect x="495" y="427.5" class="st1" width="14.6" height="0.4"/>
			<rect x="40.6" y="410.1" class="st1" width="72.7" height="0.4"/>
			<rect x="128.3" y="410.1" class="st1" width="10.7" height="0.4"/>
			<rect x="173.6" y="417.2" class="st1" width="157.6" height="0.4"/>
		</g>
	</g>
	<g>
		<g>
			<path class="st2" d="M661.8,406.2c2.4-2.9,7-4.9,12-5.8c-0.4,1.4-0.1,2.8,0.8,3.1c1,0.4,2.2-0.7,2.9-2.3c0.2-0.5,0.3-0.9,0.3-1.3
				c5.1-0.4,10.2,0.2,13.6,1.8c0,0-3.3,3-7.1,10.9c-0.1,0-0.2,0-0.3,0c-2.4,0-4.4,1.2-4.4,2.6c0,1,1.1,1.9,2.6,2.3
				c-0.2,0.5-0.4,1-0.6,1.6c-3.6,9.7-13.2,2.7-13.1-4C668.4,415.1,656.4,412.8,661.8,406.2z"/>
			<g>
				<path class="st2" d="M650,393.7c-2.9-3.2-8.3-5-14.1-5.7c0.6,1.6,0.3,3.2-0.6,3.6c-1.1,0.5-2.6-0.6-3.4-2.4
					c-0.2-0.5-0.4-1-0.5-1.5c-5.8-0.1-11.6,1-15.3,3.1c0,0,4,3.2,8.9,11.9c0.1,0,0.3,0,0.4,0c2.8-0.2,5.1,1,5.2,2.7
					c0.1,1.2-1.1,2.3-2.8,2.8c0.3,0.6,0.5,1.1,0.8,1.7c4.8,10.8,15.2,2.1,14.6-5.5C643.1,404.3,656.5,400.8,650,393.7z"/>
				<path class="st1" d="M642.9,391.3c1.2-6.1,6.5-12.4,13.1-17.6c0.5,2.4,2,4.1,3.4,3.9c1.7-0.2,2.7-2.6,2.4-5.5
					c-0.1-0.8-0.3-1.5-0.6-2.2c7.1-4.5,15-7.5,21.1-7.7c0,0-2.6,6.9-2.1,21.2c-0.2,0.1-0.3,0.2-0.5,0.3c-3.5,1.9-5.5,5.1-4.4,7.2
					c0.8,1.5,3,2,5.5,1.4c0.1,0.9,0.2,1.8,0.3,2.7c2.1,16.9-17.1,13.9-22,4.1C659.2,399.2,640.1,404.9,642.9,391.3L642.9,391.3z"/>
				<path class="st3" d="M656.7,429.8c-3.2-17.8,1.6-36.9,12.8-51.2"/>
				<path class="st4" d="M632.9,395.5c13.5,7,20.9,22,22.9,27.9c0,0,16.5-12,24.5-17.1"/>
				<g>
					<polygon class="st0" points="676.5,435.5 636,435.5 636,428.1 676.5,428.1 					"/>
					<polygon class="st0" points="638.9,433.1 645.3,459.4 668.6,459.4 674.2,433.1 					"/>
				</g>
			</g>
		</g>
		<path class="st5" d="M638.2,426.5h3.6"/>
		<path class="st5" d="M643.5,426.5h9.9"/>
	</g>
	<g>
		<g>
			<path class="st2" d="M103.6,411.5c-2.4-2.9-7-4.9-12-5.8c0.4,1.4,0.1,2.8-0.8,3.1c-1,0.4-2.2-0.7-2.9-2.3
				c-0.2-0.5-0.3-0.9-0.3-1.3c-5.1-0.4-10.2,0.2-13.6,1.8c0,0,3.3,3,7.1,10.9c0.1,0,0.2,0,0.3,0c2.4,0,4.4,1.2,4.4,2.6
				c0,1-1.1,1.9-2.6,2.3c0.2,0.5,0.4,1,0.6,1.6c3.6,9.7,13.2,2.7,13.1-4C97,420.3,108.9,418,103.6,411.5L103.6,411.5z"/>
			<g>
				<path class="st2" d="M115.4,399c2.9-3.2,8.3-5,14.1-5.7c-0.6,1.6-0.3,3.2,0.6,3.6c1.1,0.5,2.6-0.6,3.4-2.4
					c0.2-0.5,0.4-1,0.5-1.5c5.8-0.1,11.6,1,15.3,3.1c0,0-4,3.2-8.9,11.9c-0.1,0-0.3,0-0.4,0c-2.8-0.2-5.1,1-5.2,2.7
					c-0.1,1.2,1.1,2.3,2.8,2.8c-0.3,0.6-0.5,1.1-0.8,1.7c-4.8,10.8-15.2,2.1-14.6-5.5C122.3,409.5,108.8,406,115.4,399z"/>
				<path class="st1" d="M122.5,396.6c-1.2-6.1-6.5-12.4-13.1-17.6c-0.5,2.4-2,4.1-3.4,3.9c-1.7-0.2-2.7-2.6-2.4-5.5
					c0.1-0.8,0.3-1.5,0.6-2.2c-7.1-4.5-15-7.5-21.1-7.7c0,0,2.6,6.9,2.1,21.2c0.2,0.1,0.3,0.2,0.5,0.3c3.5,1.9,5.5,5.1,4.4,7.2
					c-0.8,1.5-3,2-5.5,1.4c-0.1,0.9-0.2,1.8-0.3,2.7c-2.1,16.9,17.1,13.9,22,4.1C106.2,404.5,125.3,410.2,122.5,396.6z"/>
				<path class="st3" d="M108.6,435.1c3.2-17.8-1.6-36.9-12.8-51.2"/>
				<path class="st4" d="M132.4,400.8c-13.5,7-20.9,22-22.9,27.9c0,0-16.5-12-24.5-17.1"/>
				<g>
					<polygon class="st0" points="88.9,440.7 129.4,440.7 129.4,433.3 88.9,433.3 					"/>
					<polygon class="st0" points="126.5,438.3 120.1,464.7 96.8,464.7 91.2,438.3 					"/>
				</g>
			</g>
		</g>
		<path class="st5" d="M127.1,431.8h-3.6"/>
		<path class="st5" d="M121.9,431.8H112"/>
	</g>
	<path class="st6" d="M109.2,247.2c-2.2,3.4-3.7,7-4.5,10.8l-6.1,0.6l0,11.7l6.1,0.6c0.8,3.8,2.3,7.5,4.5,10.8l-3.9,4.7l8.3,8.3
		l4.7-3.9c3.4,2.2,7,3.7,10.8,4.5l0.6,6.1l11.7,0l0.6-6c3.8-0.8,7.5-2.3,10.8-4.5l4.7,3.9l8.3-8.3l-3.9-4.7c2.2-3.4,3.7-7,4.5-10.8
		l6-0.6l0-11.7l-6.1-0.6c-0.8-3.8-2.3-7.5-4.5-10.8l3.9-4.7l-8.3-8.3l-4.7,3.9c-3.4-2.2-7-3.7-10.8-4.5l-0.6-6.1l-11.7,0l-0.6,6.1
		c-3.8,0.8-7.5,2.3-10.8,4.5l-4.7-3.9l-8.3,8.3L109.2,247.2L109.2,247.2z M146.8,253.2c6.2,6.2,6.2,16.2,0,22.4
		c-6.2,6.2-16.2,6.2-22.4,0c-6.2-6.2-6.2-16.2,0-22.4C130.6,247,140.6,247,146.8,253.2L146.8,253.2z"/>
	<path class="st6" d="M270.9,391.6c-1,1.5-1.6,3.1-2,4.8l-2.7,0.3l0,5.2l2.7,0.3c0.3,1.7,1,3.3,2,4.8l-1.7,2.1l3.7,3.7l2.1-1.7
		c1.5,1,3.1,1.6,4.8,2l0.3,2.7l5.2,0l0.3-2.7c1.7-0.3,3.3-1,4.8-2l2.1,1.7l3.7-3.7l-1.7-2.1c1-1.5,1.6-3.1,2-4.8l2.7-0.3l0-5.2
		l-2.7-0.3c-0.3-1.7-1-3.3-2-4.8l1.7-2.1l-3.7-3.7l-2.1,1.7c-1.5-1-3.1-1.6-4.8-2l-0.3-2.7l-5.2,0l-0.3,2.7c-1.7,0.3-3.3,1-4.8,2
		l-2.1-1.7l-3.7,3.7L270.9,391.6z M287.5,394.2c2.7,2.7,2.7,7.2,0,9.9c-2.7,2.7-7.2,2.7-9.9,0c-2.7-2.7-2.7-7.2,0-9.9
		C280.3,391.5,284.8,391.5,287.5,394.2z"/>
	<path class="st6" d="M461,355.6c-0.9,1.3-1.4,2.7-1.7,4.2l-2.3,0.2l0,4.5l2.3,0.2c0.3,1.5,0.9,2.9,1.7,4.2l-1.5,1.8l3.2,3.2
		l1.8-1.5c1.3,0.9,2.7,1.4,4.2,1.7l0.2,2.3l4.5,0l0.2-2.3c1.5-0.3,2.9-0.9,4.2-1.7l1.8,1.5l3.2-3.2l-1.5-1.8
		c0.9-1.3,1.4-2.7,1.7-4.2l2.3-0.2l0-4.5l-2.3-0.2c-0.3-1.5-0.9-2.9-1.7-4.2l1.5-1.8l-3.2-3.2l-1.8,1.5c-1.3-0.9-2.7-1.4-4.2-1.7
		l-0.2-2.3l-4.5,0l-0.2,2.3c-1.5,0.3-2.9,0.9-4.2,1.7l-1.8-1.5l-3.2,3.2L461,355.6L461,355.6z M475.5,358c2.4,2.4,2.4,6.3,0,8.7
		c-2.4,2.4-6.3,2.4-8.7,0c-2.4-2.4-2.4-6.3,0-8.7C469.2,355.6,473.1,355.6,475.5,358z"/>
	<path class="st6" d="M622,332.2c-0.9,1.3-1.4,2.7-1.7,4.2l-2.3,0.2l0,4.5l2.3,0.2c0.3,1.5,0.9,2.9,1.7,4.2l-1.5,1.8l3.2,3.2
		l1.8-1.5c1.3,0.9,2.7,1.4,4.2,1.7l0.2,2.3l4.5,0l0.2-2.3c1.5-0.3,2.9-0.9,4.2-1.7l1.8,1.5l3.2-3.2l-1.5-1.8
		c0.9-1.3,1.4-2.7,1.7-4.2l2.3-0.2l0-4.5l-2.3-0.2c-0.3-1.5-0.9-2.9-1.7-4.2l1.5-1.8l-3.2-3.2l-1.8,1.5c-1.3-0.9-2.7-1.4-4.2-1.7
		l-0.2-2.3l-4.5,0l-0.2,2.3c-1.5,0.3-2.9,0.9-4.2,1.7l-1.8-1.5l-3.2,3.2L622,332.2L622,332.2z M636.6,334.5c2.4,2.4,2.4,6.3,0,8.7
		c-2.4,2.4-6.3,2.4-8.7,0c-2.4-2.4-2.4-6.3,0-8.7C630.3,332.1,634.2,332.1,636.6,334.5z"/>
	<path class="st0" d="M351,84.5c-2.8,3.9-4.7,8.3-5.8,12.8l-7.3,0.4l-0.5,14.1l7.2,0.9c0.8,4.6,2.4,9.1,4.9,13.2l-4.8,5.4l9.6,10.3
		l5.8-4.4c3.9,2.8,8.3,4.7,12.8,5.8l0.4,7.3l14.1,0.5l1-7.2c4.6-0.8,9.1-2.4,13.2-4.9l5.4,4.8l10.3-9.6l-4.4-5.8
		c2.8-3.9,4.7-8.3,5.8-12.8l7.3-0.4l0.5-14.1l-7.2-1c-0.8-4.6-2.4-9.1-4.9-13.2l4.8-5.4l-9.6-10.3l-5.8,4.4
		c-3.9-2.8-8.3-4.7-12.8-5.8l-0.4-7.3l-14.1-0.5l-0.9,7.2c-4.6,0.8-9.1,2.4-13.2,4.9l-5.4-4.8l-10.3,9.6L351,84.5L351,84.5z
		 M395.8,93.4c7.2,7.7,6.7,19.8-1,26.9c-7.7,7.2-19.8,6.7-26.9-1c-7.2-7.7-6.7-19.8,1-26.9C376.6,85.3,388.7,85.7,395.8,93.4z"/>
	<path class="st0" d="M245.9,326.3c-2,3.1-3.4,6.5-4.1,10l-5.6,0.5l0,10.8l5.6,0.5c0.7,3.5,2.1,6.9,4.1,10l-3.6,4.3l7.6,7.6l4.3-3.6
		c3.1,2,6.5,3.4,10,4.1l0.5,5.6l10.8,0l0.5-5.6c3.5-0.7,6.9-2.1,10-4.1l4.3,3.6l7.6-7.6l-3.6-4.3c2-3.1,3.4-6.5,4.1-10l5.6-0.5
		l0-10.8l-5.6-0.5c-0.7-3.5-2.1-6.9-4.1-10l3.6-4.3l-7.6-7.6l-4.3,3.6c-3.1-2-6.5-3.4-10-4.1l-0.5-5.6l-10.8,0l-0.5,5.6
		c-3.5,0.7-6.9,2.1-10,4.1l-4.3-3.6l-7.6,7.6L245.9,326.3L245.9,326.3z M280.5,331.8c5.7,5.7,5.7,14.9,0,20.6
		c-5.7,5.7-14.9,5.7-20.6,0c-5.7-5.7-5.7-14.9,0-20.6C265.5,326.1,274.8,326.1,280.5,331.8z"/>
	<path class="st6" d="M267.1,90.4c-1.4,2.1-2.3,4.4-2.8,6.8l-3.8,0.4l0,7.4l3.8,0.4c0.5,2.4,1.4,4.7,2.8,6.8l-2.4,2.9l5.2,5.2
		l2.9-2.4c2.1,1.4,4.4,2.3,6.8,2.8l0.4,3.8l7.4,0l0.4-3.8c2.4-0.5,4.7-1.4,6.8-2.8l2.9,2.4l5.2-5.2l-2.4-2.9
		c1.4-2.1,2.3-4.4,2.8-6.8l3.8-0.4l0-7.4l-3.8-0.4c-0.5-2.4-1.4-4.7-2.8-6.8l2.4-2.9l-5.2-5.2l-2.9,2.4c-2.1-1.4-4.4-2.3-6.8-2.8
		l-0.4-3.8l-7.4,0l-0.4,3.8c-2.4,0.5-4.7,1.4-6.8,2.8l-2.9-2.4l-5.2,5.2L267.1,90.4L267.1,90.4z M290.8,94.2
		c3.9,3.9,3.9,10.2,0,14.1c-3.9,3.9-10.2,3.9-14.1,0c-3.9-3.9-3.9-10.2,0-14.1C280.5,90.3,286.9,90.3,290.8,94.2z"/>
	<g>
		
			<rect x="520.9" y="64.1" transform="matrix(4.103495e-02 -0.9992 0.9992 4.103495e-02 416.2978 684.7029)" class="st0" width="87.9" height="122.8"/>
		
			<rect x="524.3" y="68.9" transform="matrix(4.103495e-02 -0.9992 0.9992 4.103495e-02 416.2978 684.7029)" class="st6" width="81" height="113.2"/>
		<path class="st1" d="M506.6,163.6l0.5-12.2c7.5-11.8,25.6-27.8,31.5-27.8c9.8,0,24.2,18.2,24.2,18.2s26.7-26.2,33.3-27.4
			c10.4-1.8,24.8,25.2,24.8,25.2l-1.2,28.7L506.6,163.6L506.6,163.6z"/>
		<path class="st1" d="M573,111.2c-0.7,5.5-5.7,9.3-11.1,8.7c-5.5-0.7-9.3-5.7-8.7-11.1c0.7-5.5,5.7-9.3,11.1-8.7
			C569.8,100.8,573.7,105.7,573,111.2L573,111.2z"/>
	</g>
	<g>
		
			<rect x="598.9" y="253.5" transform="matrix(0.9862 -0.1657 0.1657 0.9862 -37.5922 109.237)" class="st0" width="73.8" height="52.8"/>
		
			<rect x="601.8" y="255.5" transform="matrix(0.9862 -0.1657 0.1657 0.9862 -37.5922 109.2368)" class="st7" width="68" height="48.7"/>
		<path class="st1" d="M606.3,309.5l-1.2-7.2c2.9-7.9,11.6-19.5,15.1-20.3c5.7-1.2,16.5,7.7,16.5,7.7s12.5-18.7,16.2-20.2
			c5.9-2.3,17.7,11.7,17.7,11.7l2.9,17L606.3,309.5L606.3,309.5z"/>
		<path class="st1" d="M638.8,270.5c0.3,3.3-2.2,6.2-5.5,6.5s-6.2-2.2-6.5-5.5s2.2-6.2,5.5-6.5C635.7,264.8,638.6,267.2,638.8,270.5
			z"/>
	</g>
	<g>
		
			<rect x="120.9" y="314.1" transform="matrix(0.9892 -0.1463 0.1463 0.9892 -47.5675 25.8233)" class="st0" width="61.8" height="44.3"/>
		
			<rect x="123.3" y="315.9" transform="matrix(0.9892 -0.1463 0.1463 0.9892 -47.5672 25.8231)" class="st7" width="57" height="40.8"/>
		<path class="st1" d="M126.6,360.6l-0.9-6.1c2.6-6.5,10-16.2,12.9-16.7c4.8-0.9,13.7,6.7,13.7,6.7s10.8-15.5,13.9-16.7
			c5-1.9,14.6,10.1,14.6,10.1l2.1,14.3L126.6,360.6L126.6,360.6z"/>
		<path class="st1" d="M154.4,328.5c0.2,2.8-1.9,5.2-4.7,5.3c-2.8,0.2-5.2-1.9-5.3-4.7c-0.2-2.8,1.9-5.2,4.7-5.3
			S154.3,325.7,154.4,328.5z"/>
	</g>
	<path class="st6" d="M638.3,146c-1,1.6-1.7,3.3-2.1,5.1l-2.9,0.3l0,5.6l2.9,0.3c0.4,1.8,1.1,3.6,2.1,5.1l-1.8,2.2l3.9,3.9l2.2-1.8
		c1.6,1,3.3,1.7,5.1,2.1l0.3,2.9l5.6,0l0.3-2.9c1.8-0.4,3.6-1.1,5.1-2.1l2.2,1.8l3.9-3.9l-1.8-2.2c1-1.6,1.7-3.3,2.1-5.1l2.9-0.3
		l0-5.6l-2.9-0.3c-0.4-1.8-1.1-3.6-2.1-5.1l1.8-2.2l-3.9-3.9l-2.2,1.8c-1.6-1-3.3-1.7-5.1-2.1l-0.3-2.9l-5.6,0l-0.3,2.9
		c-1.8,0.4-3.6,1.1-5.1,2.1l-2.2-1.8l-3.9,3.9L638.3,146L638.3,146z M656.2,148.9c2.9,2.9,2.9,7.7,0,10.7c-2.9,2.9-7.7,2.9-10.7,0
		c-2.9-2.9-2.9-7.7,0-10.7C648.5,145.9,653.2,145.9,656.2,148.9z"/>
	<path class="st6" d="M541.2,201.6c-1.8,2.7-3,5.7-3.6,8.7l-4.9,0.5l0,9.4l4.9,0.5c0.6,3.1,1.8,6,3.6,8.7l-3.1,3.8l6.7,6.7l3.8-3.1
		c2.7,1.8,5.7,3,8.7,3.6l0.5,4.9l9.4,0l0.5-4.9c3.1-0.6,6-1.8,8.7-3.6l3.8,3.1l6.7-6.7l-3.1-3.8c1.8-2.7,3-5.7,3.6-8.7l4.9-0.5
		l0-9.4l-4.9-0.5c-0.6-3.1-1.8-6-3.6-8.7l3.1-3.8l-6.7-6.7l-3.8,3.1c-2.7-1.8-5.7-3-8.7-3.6l-0.5-4.9l-9.4,0l-0.5,4.9
		c-3.1,0.6-6,1.8-8.7,3.6l-3.8-3.1l-6.7,6.7L541.2,201.6L541.2,201.6z M571.4,206.5c5,5,5,13.1,0,18.1c-5,5-13.1,5-18.1,0
		c-5-5-5-13.1,0-18.1C558.4,201.5,566.5,201.5,571.4,206.5z"/>
	<path class="st0" d="M91.7,202.5c-1,1.6-1.7,3.3-2.1,5.1l-2.9,0.3l0,5.6l2.9,0.3c0.4,1.8,1.1,3.6,2.1,5.1l-1.8,2.2l3.9,3.9l2.2-1.8
		c1.6,1,3.3,1.7,5.1,2.1l0.3,2.9l5.6,0l0.3-2.9c1.8-0.4,3.6-1.1,5.1-2.1l2.2,1.8l3.9-3.9l-1.8-2.2c1-1.6,1.7-3.3,2.1-5.1l2.9-0.3
		l0-5.6l-2.9-0.3c-0.4-1.8-1.1-3.6-2.1-5.1l1.8-2.2l-3.9-3.9l-2.2,1.8c-1.6-1-3.3-1.7-5.1-2.1l-0.3-2.9l-5.6,0l-0.3,2.9
		c-1.8,0.4-3.6,1.1-5.1,2.1l-2.2-1.8l-3.9,3.9L91.7,202.5L91.7,202.5z M109.5,205.4c2.9,2.9,2.9,7.7,0,10.7c-2.9,2.9-7.7,2.9-10.7,0
		c-2.9-2.9-2.9-7.7,0-10.7C101.8,202.4,106.6,202.4,109.5,205.4z"/>
	<path class="st0" d="M306.1,54.7c-1.3,2-2.2,4.1-2.6,6.4l-3.6,0.3l0,6.9l3.6,0.3c0.5,2.2,1.3,4.4,2.6,6.4l-2.3,2.8l4.9,4.9l2.8-2.3
		c2,1.3,4.1,2.2,6.4,2.6l0.3,3.6l6.9,0l0.3-3.6c2.2-0.5,4.4-1.3,6.4-2.6l2.8,2.3l4.9-4.9l-2.3-2.8c1.3-2,2.2-4.1,2.6-6.4l3.6-0.3
		l0-6.9l-3.6-0.3c-0.5-2.2-1.3-4.4-2.6-6.4l2.3-2.8l-4.9-4.9l-2.8,2.3c-2-1.3-4.1-2.2-6.4-2.6l-0.3-3.6l-6.9,0l-0.3,3.6
		c-2.2,0.5-4.4,1.3-6.4,2.6l-2.8-2.3l-4.9,4.9L306.1,54.7L306.1,54.7z M328.3,58.3c3.7,3.7,3.7,9.6,0,13.2c-3.7,3.7-9.6,3.7-13.2,0
		c-3.7-3.7-3.7-9.6,0-13.2C318.7,54.6,324.6,54.6,328.3,58.3L328.3,58.3z"/>
</g>
<g id="freepik--Shadow--inject-2">
	<path class="st6" d="M689.6,469c0,3.4-136.3,6.1-304.5,6.1S80.7,472.4,80.7,469s136.3-6.1,304.5-6.1S689.6,465.6,689.6,469z"/>
</g>
<g id="freepik--Window--inject-2">
	<g>
		<g>
			<path class="st8" d="M229.8,97h307.1c8.6,0,15.5,6.9,15.5,15.5v208c0,8.6-6.9,15.5-15.5,15.5H229.8c-8.6,0-15.5-6.9-15.5-15.5
				v-208C214.3,104,221.2,97,229.8,97z"/>
			<path class="st9" d="M229.8,97.1h307.1c8.6,0,15.5,6.9,15.5,15.5v208c0,8.6-6.9,15.5-15.5,15.5H229.8c-8.6,0-15.5-6.9-15.5-15.5
				v-208C214.3,104,221.2,97.1,229.8,97.1z"/>
			<path class="st8" d="M230,97h307c8.5,0,15.4,6.9,15.4,15.4v14.6H214.3v-14.4C214.3,104.1,221.3,97,230,97z"/>
			<g>
				<circle class="st10" cx="236.3" cy="112.8" r="4.7"/>
				<circle class="st10" cx="247.8" cy="112.8" r="4.7"/>
				<path class="st10" d="M264.3,112.8c0,2.6-2.1,4.7-4.7,4.7s-4.7-2.1-4.7-4.7s2.1-4.7,4.7-4.7S264.3,110.1,264.3,112.8z"/>
			</g>
		</g>
		<g>
			<path class="st8" d="M244.2,141.7h106.6c1.9,0,3.4,1.5,3.4,3.4v92.1c0,1.9-1.5,3.4-3.4,3.4H244.2c-1.9,0-3.4-1.5-3.4-3.4v-92.1
				C240.8,143.2,242.3,141.7,244.2,141.7z"/>
			<path class="st11" d="M240.8,224.7l29.4-28.9c2.7-2.7,6.9-3.3,10.3-1.5l23.3,12.2l20.7-22.5c3.6-3.9,9.7-4.3,13.8-0.8l15.9,13.5
				v37.7c-0.5,3.5-4.4,6.3-6.8,6.3H248C238.6,240.6,240.3,227.2,240.8,224.7L240.8,224.7z"/>
			<path class="st11" d="M316.6,169.8c0,6.8-5.4,12.3-12,12.3s-12-5.5-12-12.3c0-6.8,5.4-12.3,12-12.3S316.6,163,316.6,169.8z"/>
		</g>
		<g>
			<g>
				<rect x="244.7" y="253.8" class="st12" width="109.6" height="8.6"/>
				<rect x="244.7" y="270" class="st12" width="109.6" height="8.6"/>
			</g>
			<g>
				<rect x="244.7" y="285.9" class="st12" width="109.6" height="8.6"/>
				<rect x="244.7" y="302.1" class="st12" width="109.6" height="8.6"/>
			</g>
		</g>
		<g>
			<g>
				<path class="st12" d="M402.3,146.5h48.5c1.9,0,3.4,1.5,3.4,3.4v41.4c0,1.9-1.5,3.4-3.4,3.4h-48.5c-1.9,0-3.4-1.5-3.4-3.4v-41.4
					C398.9,148,400.5,146.5,402.3,146.5z"/>
				<path class="st12" d="M398.9,187l14.3-14.1c1.3-1.3,3.4-1.6,5-0.7l11.4,5.9l10.1-11c1.8-1.9,4.8-2.1,6.7-0.4l7.8,6.6v18.4
					c-0.2,1.7-2.2,3.1-3.3,3.1h-48.5C397.9,194.7,398.7,188.2,398.9,187z"/>
				<path class="st12" d="M433.3,160.2c0,3.3-2.6,6-5.8,6s-5.8-2.7-5.8-6c0-3.3,2.6-6,5.8-6S433.3,156.9,433.3,160.2z"/>
			</g>
			<rect x="401.1" y="201.5" class="st12" width="30.8" height="6.7"/>
			<rect x="401.1" y="218.1" class="st12" width="55.2" height="6.7"/>
			<rect x="401.1" y="230.5" class="st12" width="55.2" height="6.7"/>
			<rect x="401.1" y="243.5" class="st12" width="32.2" height="6.7"/>
		</g>
		<g>
			<g>
				<path class="st12" d="M475.3,146.5h48.5c1.9,0,3.4,1.5,3.4,3.4v41.4c0,1.9-1.5,3.4-3.4,3.4h-48.5c-1.9,0-3.4-1.5-3.4-3.4v-41.4
					C471.9,148,473.4,146.5,475.3,146.5z"/>
				<path class="st12" d="M471.9,187l14.3-14.1c1.3-1.3,3.4-1.6,5-0.7l11.4,5.9l10.1-11c1.8-1.9,4.8-2.1,6.7-0.4l7.8,6.6v18.4
					c-0.2,1.7-2.2,3.1-3.3,3.1h-48.5C470.9,194.7,471.7,188.2,471.9,187L471.9,187z"/>
				<path class="st12" d="M506.2,160.2c0,3.3-2.6,6-5.8,6s-5.8-2.7-5.8-6c0-3.3,2.6-6,5.8-6S506.2,156.9,506.2,160.2z"/>
			</g>
			<rect x="474" y="201.5" class="st12" width="30.8" height="6.7"/>
			<rect x="474" y="218.1" class="st12" width="55.2" height="6.7"/>
			<rect x="474" y="230.5" class="st12" width="55.2" height="6.7"/>
			<rect x="474" y="243.5" class="st12" width="32.2" height="6.7"/>
		</g>
		<rect x="397.6" y="268.8" class="st12" width="131.6" height="6.5"/>
		<rect x="397.6" y="279.9" class="st12" width="131.6" height="35.8"/>
	</g>
</g>
<g id="freepik--Plant--inject-2">
	<g>
		<g>
			<path class="st8" d="M440.3,331.8c-14,16.3-18,40.5-10.2,60.5c8.7-7.8,14.8-19.6,15.2-30S443,341.8,440.3,331.8z"/>
			<path class="st8" d="M437.9,394.1c-4.7,7.3-7,16.1-6.3,24.7c7.5-2.6,14.2-11.2,18.2-18.1c4-6.9,6.2-14.7,8.2-22.4
				C449.8,381.2,442.6,386.9,437.9,394.1L437.9,394.1z"/>
			<path class="st13" d="M436.1,360.2c-5.6,20.2-8.5,41.1-8.5,62c0,6,0.2,11.9,0.7,17.8c0,0.5,0.8,0.5,0.8,0
				c-1.6-20.9-0.4-41.9,3.6-62.5c1.1-5.8,2.5-11.5,4.1-17.1C436.9,360,436.2,359.8,436.1,360.2L436.1,360.2L436.1,360.2z"/>
			<path class="st13" d="M428.7,425.7c5.7-13.6,13.3-26.4,22-38.3c0.3-0.4-0.4-0.8-0.6-0.4c-8.7,12-16.3,24.8-22,38.5
				C427.8,426,428.5,426.2,428.7,425.7L428.7,425.7z"/>
			<path class="st8" d="M420.5,405.4c3.9,6.1,5.8,13.4,5.3,20.6c-6.3-2.2-11.8-9.3-15.2-15.1c-3.3-5.8-5.2-12.3-6.9-18.7
				C410.5,394.7,416.5,399.4,420.5,405.4z"/>
			<path class="st13" d="M428.5,430.8c-4.7-11.2-10.9-21.6-18.1-31.3c-0.3-0.4-0.9,0-0.6,0.4c7.1,9.7,13.3,20,18,31.2
				C428,431.5,428.7,431.3,428.5,430.8L428.5,430.8L428.5,430.8z"/>
			<path class="st13" d="M428.7,434.6c8.9-9.1,17.9-18.1,26.8-27.2c0.3-0.3-0.2-0.9-0.5-0.5c-8.9,9.1-17.9,18.1-26.8,27.2
				C427.8,434.4,428.4,435,428.7,434.6L428.7,434.6z"/>
			<path class="st8" d="M455.8,403.1c-7.7,7.4-14.7,15.6-20.9,24.3l1.4,0c5.9-0.3,11.6-3.2,15.2-7.7
				C455.2,415.1,456.8,408.9,455.8,403.1z"/>
			<g>
				<path class="st13" d="M419.2,385.5c3.3,5.4,6.4,10.9,9.3,16.6c0.2,0.4,0.9,0,0.6-0.4c-2.9-5.6-6-11.2-9.3-16.6
					C419.6,384.7,419,385.1,419.2,385.5L419.2,385.5z"/>
				<path class="st8" d="M411.3,358.1c-1.3,5.7-2.5,13.1-2.5,19c0,5.9,1.8,11.7,5.1,15.6c3.4,4,10.1,5.7,12.9,3.4L411.3,358.1
					L411.3,358.1z"/>
			</g>
		</g>
		<rect x="411.2" y="437.2" class="st13" width="33.7" height="6.2"/>
		<polygon class="st13" points="439.4,465.6 418.5,465.6 414.7,442 442.4,442 		"/>
		<polygon class="st11" points="414.9,443.5 442.2,443.5 441.8,446.2 415.4,446.2 		"/>
	</g>
</g>
<g id="freepik--Speech_Bubble_2--inject-2">
	<g>
		<g>
			<path class="st8" d="M637,219.4c7.8-8.7,7.1-22.1-1.7-30c-8.7-7.8-22.1-7.1-30,1.7c-6,6.7-6.9,16.3-3,23.9l-2.3,5.9l6.7-0.1
				c0.1,0.1,0.2,0.2,0.3,0.2C615.8,228.9,629.2,228.1,637,219.4L637,219.4z"/>
			<path class="st14" d="M633.2,184.1c6.2,3.1,10.6,9.4,11.3,16.3"/>
			<path class="st14" d="M644.7,203.6c0.2,1,0.2,2.1-0.1,3.1"/>
		</g>
		<polygon class="st10" points="620.8,214.3 611.1,207 613.6,203.6 620.1,208.5 629.1,197.8 632.3,200.5 		"/>
	</g>
</g>
<g id="freepik--Speech_Bubble_1--inject-2">
	<path class="st15" d="M446.4,131.5c-5.3-9.4-17.1-12.5-26.4-6.8c-9.3,5.6-12.6,17.8-7.3,27.2c0.1,0.1,0.1,0.2,0.2,0.3l-1.4,6.2
		l5.7-1c6,4.9,14.7,5.8,21.8,1.4C448.4,153.1,451.6,140.9,446.4,131.5L446.4,131.5z"/>
	<g>
		<path class="st10" d="M441.8,127.1c5.3,9.4,2,21.6-7.3,27.2c-7.2,4.3-15.8,3.5-21.8-1.4l-5.7,1l1.4-6.2c-0.1-0.1-0.1-0.2-0.2-0.3
			c-5.3-9.4-2-21.6,7.3-27.2C424.8,114.7,436.6,117.8,441.8,127.1z"/>
		<path class="st8" d="M420.3,136.9c0,1.4-1.2,2.6-2.7,2.6c-1.5,0-2.7-1.2-2.7-2.6c0-1.4,1.2-2.6,2.7-2.6
			C419.1,134.3,420.3,135.5,420.3,136.9z"/>
		<path class="st8" d="M428.4,136.9c0,1.4-1.2,2.6-2.7,2.6c-1.5,0-2.7-1.2-2.7-2.6c0-1.4,1.2-2.6,2.7-2.6
			C427.3,134.3,428.4,135.5,428.4,136.9z"/>
		<path class="st8" d="M436.6,136.9c0,1.4-1.2,2.6-2.7,2.6s-2.7-1.2-2.7-2.6c0-1.4,1.2-2.6,2.7-2.6S436.6,135.5,436.6,136.9z"/>
	</g>
</g>
<g id="freepik--Colors--inject-2">
	<g>
		<g>
			<path class="st8" d="M186.4,79.1h-86.3c-4,0-7.2,3.2-7.2,7.2v79.3c0,4,3.2,7.2,7.2,7.2h38.6c4.1,4,13.4,13.5,13.4,13.5v-13.5
				h34.3c4,0,7.2-3.2,7.2-7.2V86.4C193.6,82.4,190.4,79.1,186.4,79.1z"/>
			<path class="st9" d="M186.4,79.1h-86.3c-4,0-7.2,3.2-7.2,7.2v79.3c0,4,3.2,7.2,7.2,7.2h38.6c4.1,4,13.4,13.5,13.4,13.5v-13.5
				h34.3c4,0,7.2-3.2,7.2-7.2V86.4C193.6,82.4,190.4,79.1,186.4,79.1z"/>
		</g>
		<path class="st13" d="M141.3,90.8c1.7-1.7,8,1.7,14.3,7.7c6.2,6,9.9,12.3,8.2,14c-1.7,1.7-8-1.7-14.3-7.7
			C143.3,98.8,139.6,92.5,141.3,90.8z"/>
		<path class="st8" d="M149.5,104.8c-6.2-6-9.9-12.2-8.2-14l-19.7,20.4c-1.7,1.7,2,8,8.2,14c6.2,6,12.6,9.5,14.2,7.7l19.7-20.4
			C162.1,114.3,155.8,110.8,149.5,104.8L149.5,104.8z"/>
		<path class="st16" d="M149.5,104.8c-6.2-6-9.9-12.2-8.2-14l-19.7,20.4c-1.7,1.7,2,8,8.2,14c6.2,6,12.6,9.5,14.2,7.7l19.7-20.4
			C162.1,114.3,155.8,110.8,149.5,104.8L149.5,104.8z"/>
		<path class="st8" d="M177.6,105.8c-3.7,6.6-9.4,8.6-15.9,7.1h0c-2.8-0.6-7.5-3.6-12.1-8.1c-2.4-2.2-4.5-4.7-6.3-7.4
			c0.2-2.3,3.3-4.2,6-4.5c3.6-0.4,8.3,0.4,12.8,6.7c5.5,7.6,11.2,6.3,12.1,3.5C175.6,98.2,180.9,99.8,177.6,105.8L177.6,105.8z
			 M172.4,101.1c0.2-2.1-1.5-2.9-1.4-0.9C171.1,102.2,172.3,102.6,172.4,101.1z M176.6,111.1c1.5-0.5,1.5-1.9,0.1-1.2
			C175.4,110.5,175.5,111.4,176.6,111.1z"/>
	</g>
	<path class="st8" d="M128.7,141.3c3.6,3.7,3.7,9.6,0.1,13.1c-3.6,3.5-9.5,3.4-13.1-0.3c-3.6-3.7-3.7-9.6-0.1-13.1
		C119.2,137.4,125.1,137.5,128.7,141.3z M138.3,141.9c-3.6,3.5-3.5,9.4,0.1,13.1c3.6,3.7,9.5,3.9,13.1,0.3c3.6-3.5,3.5-9.4-0.1-13.1
		C147.7,138.5,141.9,138.4,138.3,141.9L138.3,141.9z M167.4,157.9c4.9,0.2,9-3.6,9.3-8.5c0-0.2,0-0.3,0-0.5c0-5.2-4.1-9.4-9.3-9.6
		c-4.9-0.2-9,3.6-9.3,8.5c0,0.2,0,0.3,0,0.5C158.2,153.5,162.3,157.7,167.4,157.9z M133.4,147.6c0-6.2-5-11.2-11.2-11.2
		s-11.2,5-11.2,11.2c0,6.2,5,11.2,11.2,11.2C128.4,158.9,133.4,153.8,133.4,147.6z M132.9,147.6c0,5.9-4.8,10.7-10.7,10.7
		s-10.7-4.8-10.7-10.7s4.8-10.7,10.7-10.7S132.9,141.7,132.9,147.6z"/>
</g>
<g id="freepik--Character_3--inject-2">
	<g>
		<g>
			<g>
				<path class="st8" d="M537,380.6h101.7c1.9,0,3.4,1.5,3.4,3.4v76.8c0,3.1-2.5,5.6-5.6,5.6H537c-1.9,0-3.4-1.5-3.4-3.4V384
					C533.5,382.1,535.1,380.6,537,380.6L537,380.6z"/>
				<path class="st17" d="M568.6,423.5v-17.9c0-1.8,2-2.9,3.5-2l15.5,9l15.5,9c1.6,0.9,1.6,3.2,0,4.1l-15.5,9l-15.5,9
					c-1.6,0.9-3.5-0.2-3.5-2V423.5z"/>
				<path class="st15" d="M622.4,380.6h16.4c1.8,0,3.3,1.5,3.3,3.3v77c0,3-2.5,5.5-5.5,5.5h-14.2V380.6L622.4,380.6L622.4,380.6z"/>
			</g>
			<path class="st15" d="M558.4,459.5c0,0,4.8-2.1,4.7-1.8c-0.1,0.3-7.4-31.9-10-43.7s-7.3-28-7.3-28l38-5.2c0,0-57.1-4.9-56.1-4.1
				c0.7,0.5,11.1,54,19.8,77.9C550.8,463.7,558.4,459.5,558.4,459.5L558.4,459.5z"/>
		</g>
		<g>
			<polygon class="st18" points="502.4,412.5 491.4,432.7 481.7,429.8 490.5,406.4 			"/>
			<g>
				<path class="st13" d="M488.9,443.6l-6.9-1.5c0,0-0.4-1.4-1.8-1.8c-0.8-0.2-3,0.5-3,0.5l-19-3.9c0,0,0.3-1.3,0.6-1.8
					c0.4-0.6,0.8-1.2,1.2-1.6c1.5-1.5,3.8-1.8,5.5-1.9c2.9-0.3,11.1-2.5,11.1-2.5s2.1-0.8,3.9-3.2c1-1.4,2.3-2,3.1-2
					c1.7,0.1,2.4,1.3,2.4,2.9l-0.1,1.9c1.1,1.3,2.8,1.6,4.3,0.6c0,0,4-1.4,3.4,0.4c-0.3,1-2,5.4-3.1,8.9c-0.3,0.8-0.5,1.6-0.8,2.3
					l0,0C489.3,442.6,488.9,443.6,488.9,443.6L488.9,443.6z"/>
				<path class="st8" d="M472.2,430.2c0.1-0.1,0.2,0,0.3,0c0.4,0.4,0.7,0.9,0.8,1.4c0.1,0.3-0.4,0.5-0.5,0.2
					c-0.1-0.5-0.4-0.9-0.7-1.2C472.1,430.5,472.1,430.3,472.2,430.2L472.2,430.2z"/>
				<path class="st8" d="M473.9,429.7c0.1-0.1,0.2,0,0.3,0c0.4,0.4,0.7,0.9,0.8,1.4c0.1,0.3-0.4,0.5-0.5,0.2
					c-0.1-0.5-0.4-0.9-0.7-1.2C473.7,430,473.7,429.8,473.9,429.7L473.9,429.7L473.9,429.7z"/>
				<path class="st8" d="M475.5,429.3c0.1-0.1,0.2,0,0.3,0c0.4,0.4,0.7,0.9,0.8,1.4c0.1,0.3-0.4,0.5-0.5,0.2
					c-0.1-0.5-0.4-0.9-0.7-1.2C475.4,429.6,475.4,429.4,475.5,429.3L475.5,429.3L475.5,429.3z"/>
			</g>
			<path class="st19" d="M475.7,429.6c0.2-0.6,0.4-1.3,0.5-2c0.1-0.7,0-1.4-0.2-2c-0.1-0.3-0.3-0.6-0.6-0.6c-0.3,0-0.6,0.2-0.8,0.5
				c-0.3,0.5-0.4,1.2-0.2,1.8C474.4,427.9,475.3,429.1,475.7,429.6"/>
			<path class="st19" d="M475.7,429.6c0.4-0.6,0.8-1.1,1.2-1.6c0.5-0.5,1-0.9,1.7-1.1c0.3-0.1,0.7-0.1,0.9,0.1
				c0.2,0.2,0.2,0.6,0.1,0.9c-0.2,0.6-0.7,1.1-1.3,1.3C477.8,429.6,476.4,429.6,475.7,429.6"/>
		</g>
		<g>
			<polygon class="st18" points="548,427.3 553.1,449.8 543.9,454 535,430.6 			"/>
			<g>
				<path class="st13" d="M558.4,459.6l-6.1,3.5c0,0-1.2-0.8-2.6-0.1c-0.7,0.4-1.9,2.4-1.9,2.4l-16.8,9.6c0,0-0.7-1.2-0.8-1.8
					c-0.1-0.7-0.2-1.4-0.1-2c0.2-2.1,1.7-3.8,2.8-5.1c2-2.1,6.7-9.2,6.7-9.2s1.1-2,0.8-5c-0.2-1.7,0.4-3,1.1-3.6
					c1.4-1,2.7-0.6,3.7,0.6l1.2,1.5c1.6,0.2,3.1-0.7,3.7-2.4c0,0,2.1-3.7,2.8-2c0.4,1,2.1,5.4,3.5,8.8c0.3,0.8,0.7,1.6,0.9,2.2l0,0
					C558,458.6,558.4,459.6,558.4,459.6L558.4,459.6z"/>
				<path class="st8" d="M537.1,460.5c0-0.1,0.1-0.2,0.3-0.2c0.5,0,1.1,0.2,1.6,0.5c0.3,0.2,0,0.6-0.2,0.4c-0.4-0.3-0.9-0.4-1.4-0.4
					C537.1,460.8,537,460.7,537.1,460.5L537.1,460.5L537.1,460.5z"/>
				<path class="st8" d="M538,459.1c0-0.1,0.1-0.2,0.3-0.2c0.5,0,1.1,0.2,1.6,0.5c0.3,0.2,0,0.6-0.2,0.4c-0.4-0.3-0.9-0.4-1.4-0.4
					C538,459.4,537.9,459.3,538,459.1L538,459.1L538,459.1z"/>
				<path class="st8" d="M538.9,457.7c0-0.1,0.1-0.2,0.3-0.2c0.5,0,1.1,0.2,1.6,0.5c0.3,0.2,0,0.6-0.2,0.4c-0.4-0.3-0.9-0.4-1.4-0.4
					C539,458,538.9,457.8,538.9,457.7L538.9,457.7z"/>
			</g>
			<path class="st20" d="M549.7,462.9c-0.7,0.4-1.9,2.4-1.9,2.4l-16.8,9.6c0,0-0.7-1.2-0.8-1.8c-0.1-0.3-0.1-0.7-0.1-1l27.1-15.5
				c0.1,0.1,0.1,0.3,0.2,0.4l0,0c0.6,1.5,1,2.5,1,2.5l-6.1,3.5C552.3,463,551,462.2,549.7,462.9L549.7,462.9z"/>
			<path class="st19" d="M539.2,457.8c-0.3-0.6-0.6-1.2-1-1.8c-0.4-0.6-0.9-1-1.5-1.3c-0.3-0.1-0.6-0.2-0.9,0
				c-0.3,0.2-0.3,0.6-0.3,0.9c0.1,0.6,0.5,1.2,1,1.5C537.1,457.4,538.6,457.7,539.2,457.8"/>
			<path class="st19" d="M539.3,457.7c-0.1-0.7-0.2-1.3-0.1-2c0-0.7,0.2-1.4,0.6-1.9c0.2-0.3,0.4-0.5,0.7-0.5c0.3,0,0.6,0.3,0.7,0.6
				c0.2,0.6,0.2,1.3-0.1,1.8C540.8,456.4,539.7,457.3,539.3,457.7"/>
		</g>
		<g>
			<g id="freepik--freepik--Character--inject-281--inject-2">
				<path class="st13" d="M512.4,369.5c0.4,3.6,1.1,8.5,2.1,12c2.6,9.9,5.5,19.3,9.1,29.1c7.1,19.4,12.8,37.3,12.8,37.3l18-5.4
					c0,0-11.9-56-19.9-61.7h49.2c0.9,0,1.8-0.1,2.7-0.2c-8.5-1.1-21.7-6.3-33.9-11.5c-10.8-4.6-21-9.3-26.4-11l0,0
					C519.4,361,511.9,363.8,512.4,369.5L512.4,369.5z"/>
				<path class="st21" d="M526.1,358.2c5.5,1.8,15.6,6.4,26.4,11c12.3,5.2,25.5,10.4,33.9,11.5c14.3-1.9,19.6-18.9,4.7-38.5
					c-9.7,0-19.4,9.3-19.4,9.3S542.5,351.3,526.1,358.2L526.1,358.2z"/>
				<path class="st13" d="M486,418.4l11.9,7.2c0,0,9.9-20.8,19.4-44.4c-0.9-3.5-1.6-7.1-2-10.7c-0.5-5.6,4-9.6,10.7-12.4l0,0
					c5.5,1.8,15.6,6.4,26.4,11c12.3,5.2,25.5,10.4,33.9,11.5c1,0.1,2,0.2,2.9,0.2c16.3,0,21.9-14.3,15.3-38.5c-9.7,0-26.3-1-26.3-1
					s-32-7.7-55.1-5.1c-11.2,1.3-20.3,9.7-22.5,20.8C495,386.5,486,418.4,486,418.4L486,418.4z"/>
				<path class="st13" d="M484.1,419.3l13.8,6.3c0,0,9.9-20.8,19.4-44.4c-0.9-3.5-1.6-7.1-2-10.7c-0.5-5.6,4-9.6,10.7-12.4l0,0
					c5.5,1.8,15.6,6.4,26.4,11c12.3,5.2,25.5,10.4,33.9,11.5c1,0.1,2,0.2,2.9,0.2c16.3,0,21.9-14.3,15.3-38.5c-9.7,0-26.3-1-26.3-1
					s-32-7.7-55.1-5.1c-11.2,1.3-20.3,9.7-22.5,20.8C495,386.5,484.1,419.3,484.1,419.3L484.1,419.3z"/>
			</g>
			<path class="st11" d="M512.4,369.5c0.4,3.6,1.1,8.5,2.1,12c2.6,9.9,5.5,19.3,9.1,29.1c7.1,19.4,12.8,37.3,12.8,37.3l18-5.4
				c0,0-11.9-56-19.9-61.7h49.2c0.9,0,1.8-0.1,2.7-0.2c-8.5-1.1-21.7-6.3-33.9-11.5c-10.8-4.6-21-9.3-26.4-11l0,0
				C519.4,361,511.9,363.8,512.4,369.5L512.4,369.5z"/>
		</g>
		<g>
			<path class="st8" d="M568.1,266.3l5.5-4.4l15.6-1c0,0,3.9,3.2,4.1,3.2c0.2,0,2.5,0.9,2.5,0.9l-1.5,3.8L568.1,266.3L568.1,266.3z"
				/>
			<path class="st18" d="M553.3,288.7c0,0-8.2,25.7-8.9,27.1c-2.7,4.8-20.4,13-20.4,13l-9.1-1.9l-6.5,5.4l4.3,3.3l5-1.9
				c2.7,0.5,5.5,0.7,8.3,0.7c4.7,0,27.2-5.7,31-12c3.8-6.3,5.5-35.4,5.5-35.4L553.3,288.7L553.3,288.7z"/>
			<g id="freepik--freepik--group--inject-39--inject-2">
				<path class="st8" d="M605.9,347.4l-54.3-8.2c0.8-35.2,8.9-72.1,8.9-72.1c15.7-1.8,31.5-1.8,47.2-0.2
					C600.3,289.5,605.9,347.4,605.9,347.4L605.9,347.4z"/>
				<path class="st16" d="M601.3,346.7l-49.7-7.6c0.8-35.2,8.9-72.1,8.9-72.1c15.7-1.8,31.5-1.8,47.2-0.2
					C600.3,289.5,601.3,346.7,601.3,346.7z"/>
				<path class="st8" d="M607.6,266.9c-2.9,25.5,4.7,79.9,4.7,79.9c-3.4,7.4-12.6,8.8-23.5,8.4c-9.7-42,4.2-91,4.2-91L607.6,266.9z"
					/>
				<path class="st8" d="M560.4,267.1c-7.2,19.1-11.6,71.5-11.6,71.5l4.3,1c5.6-63.3,17.7-74.8,17.7-74.8L560.4,267.1L560.4,267.1z"
					/>
				<g>
					<path class="st8" d="M565.4,289.4l0.5-7.3c0-0.4,0.3-0.7,0.7-0.7l17.8,0.6l0,0c0.4,0,0.7,0.4,0.6,0.8l-0.4,7.5l-0.4,7.5l0,0
						c0,0.4-0.3,0.8-0.7,0.7l-18-1.3l0,0c-0.4,0-0.7-0.4-0.6-0.9L565.4,289.4L565.4,289.4z"/>
					<path class="st22" d="M565.4,289.4l0.5-7.3c0-0.4,0.3-0.7,0.7-0.7l17.8,0.6l0,0c0.4,0,0.7,0.4,0.6,0.8l-0.4,7.5l-0.4,7.5l0,0
						c0,0.4-0.3,0.8-0.7,0.7l-18-1.3l0,0c-0.4,0-0.7-0.4-0.6-0.9L565.4,289.4L565.4,289.4z"/>
					<path class="st23" d="M565.4,289.4c3.1,0.8,8.6,2,8.7,1.6c0.1-0.6,0.1-2.9,0.4-3.5c0.3-0.7,3.3,6.1,4.3,5.1c1-1,0.1-8.2,2-8.3
						c1.1,0,2.6,3.1,3.8,6l-0.4,7.5l0,0c0,0.4-0.3,0.8-0.7,0.7l-18-1.3l0,0c-0.4,0-0.7-0.4-0.6-0.9L565.4,289.4L565.4,289.4z"/>
				</g>
				<path class="st8" d="M540.7,302.4l10.9,3.1h0.9l3.8-20l4.1-18.4C550.1,268.5,540.7,302.4,540.7,302.4z"/>
				<polygon class="st8" points="589.1,261 590.1,277.1 593.3,264.1 				"/>
			</g>
		</g>
		<g>
			<path class="st13" d="M537,336.4h33.7l0,0c0,1.3-1.4,2.3-3.2,2.3h-27.2l0,0l0,0h-27.6c-1.7,0-3.2-1.1-3.1-2.3H537L537,336.4z"/>
			<path class="st13" d="M512.1,338.6h30.8c0.5,0,1-0.4,1-0.8c0-0.1,0-0.2,0-0.2l-13.7-31.4c-0.3-0.9-1.4-1.5-2.5-1.5h-30.8
				c-0.5,0-0.9,0.3-0.9,0.8c0,0.1,0,0.2,0.1,0.3l13.7,31.4C509.9,338,510.9,338.6,512.1,338.6L512.1,338.6z"/>
			<path class="st17" d="M496.7,304.7h30.8c1.2,0,2.2,0.6,2.5,1.5l13.2,30.2h27.4l0,0c0,1.3-1.4,2.3-3.2,2.3h-27.2l0,0l0,0h-27.6
				c-0.6,0-1.1-0.1-1.5-0.3c-0.7-0.2-1.3-0.7-1.5-1.3l-13.7-31.4c0-0.1-0.1-0.2-0.1-0.3C495.8,305,496.2,304.7,496.7,304.7
				L496.7,304.7z"/>
			<path class="st10" d="M515.2,321.4c0.7,1.5,2,2.5,3,2.3c1-0.2,1.3-1.6,0.6-3.1s-2-2.5-3-2.3S514.5,319.8,515.2,321.4z"/>
			<g class="st24">
				<path d="M530.1,306.2l13.2,30.2h-1.4l-14.3-31.7C528.7,304.7,529.7,305.3,530.1,306.2z"/>
			</g>
		</g>
		<g>
			<path class="st18" d="M599.7,284c0,0-2.2,31.6-4.7,34.3c-4.3,4.6-27.8,14.7-27.8,14.7l-10.6-3.7c-0.7-0.2-1.6-0.1-2.2,0.4
				l-7.3,5.5l0.7,0.6c0.3,0.3,0.7,0.3,1.1,0.1l1.1-0.6l-1.3,1.2l0.4,0.3c0.4,0.3,0.9,0.5,1.5,0.3l3.2-0.9l-3,2
				c0.7,0.6,1.6,0.8,2.5,0.5l4.8-1.4c3.2,0.7,6.5,1.2,9.9,1.4c5.6,0.3,33.4-4.8,38.4-11.5c4.9-6.8,8.6-39,8.6-39L599.7,284
				L599.7,284z"/>
			<path class="st8" d="M607.6,266.9c0,0,8.9,1.1,8.9,10.6c0,8.2-3,29.5-3,29.5l-18.8-3.5l4.1-23.6
				C599.7,274.5,602.9,269.8,607.6,266.9L607.6,266.9z"/>
		</g>
		<g>
			<g>
				<path class="st13" d="M566.2,226.5c0.4-0.5-0.7-11.3,18-5.9c13.9,4,8.6,14.9,8.6,14.9L576.9,224L566.2,226.5L566.2,226.5z"/>
				<path class="st18" d="M588.8,266c-1.4-0.8-1.6-1.4-2-2.9c-1.1-3.7,0.1-16.4,0.1-16.4l-13.8,5.7c0,0,0.1,0.3,0.3,0.8
					c0.4,1.5,1.3,4.6,1.6,7.2c0.2,1.6,0.1,3.1-0.4,3.8c-0.6,0.7-2.2,1.8-3.3,2.1c0,0,1.8,3.8,8,3.3S588.8,266,588.8,266L588.8,266z"
					/>
				<path class="st11" d="M584.6,253.7c0,0-3,6.2-9.8,6c-0.3-2.6-1.2-5.7-1.6-7.2c0.5-0.2,0.8-0.3,0.8-0.3L584.6,253.7L584.6,253.7z
					"/>
				<path class="st13" d="M566.9,224.3c0,0-4,11.4,1.3,17.1c5.4,5.7,9.5-16.1,9.5-16.1L566.9,224.3L566.9,224.3z"/>
				<path class="st18" d="M584.6,254.2c-4.2,3.2-9,4-13,1.8c-2.6-1.4-4.7-3.8-5.7-6.8c-0.1-0.4-0.2-0.8-0.3-1.2
					c-1.7-7.8-0.3-20.5,8.2-23.7c6-2.4,12.9,0.6,15.2,6.7c0.7,1.7,0.9,3.6,0.8,5.4C589,244.8,589.5,250.4,584.6,254.2z"/>
				<path class="st13" d="M576.6,238.9c0,0.9-0.5,1.6-1.1,1.6c-0.6,0-1-0.8-1-1.7c0-0.9,0.5-1.6,1.1-1.6
					C576.2,237.2,576.6,238,576.6,238.9L576.6,238.9z"/>
				<path class="st13" d="M568.8,238.8c0,0.9-0.5,1.6-1.1,1.6c-0.6,0-1-0.8-1-1.7c0-0.9,0.5-1.6,1.1-1.6
					C568.3,237.2,568.8,238,568.8,238.8z"/>
				<path class="st25" d="M571.2,238.6c-0.9,2.1-2,4.1-3.5,5.9c1,0.7,2.2,1,3.3,0.7L571.2,238.6z"/>
				<path class="st13" d="M565.8,234.8c0.1,0.1,0.3,0.1,0.4,0c0.9-0.6,2-0.7,3-0.3c0.2,0.1,0.4,0,0.5-0.2c0.1-0.2,0-0.4-0.2-0.5l0,0
					c-1.2-0.5-2.6-0.4-3.7,0.3c-0.2,0.1-0.3,0.4-0.2,0.6l0,0C565.7,234.7,565.8,234.7,565.8,234.8L565.8,234.8z"/>
				<path class="st13" d="M578.2,235.2c0.1,0,0.2,0,0.2-0.1c0.2-0.2,0.1-0.4,0-0.6l0,0c-1-0.9-2.3-1.3-3.6-1
					c-0.2,0.1-0.3,0.3-0.3,0.5l0,0c0.1,0.2,0.3,0.3,0.5,0.3l0,0c1-0.2,2.1,0.1,2.9,0.8C578,235.3,578.1,235.3,578.2,235.2
					L578.2,235.2z"/>
				<path class="st13" d="M583.6,225.4l-0.7,3.7c1.2,0.7,1.8,2.2,1.2,3.6c-1.4,3.1,0,8.1,2.3,10.3c0,0,0.2-1.4,1.3-1
					c1.1,0.4,0,6.2-1.2,9.7c0,0,2.6-1.8,5.1-9.2c2.3-6.8,2.9-12.6,1.6-15.4L583.6,225.4L583.6,225.4z"/>
				<path class="st22" d="M583.6,225.4l-0.7,3.7c1.2,0.7,1.8,2.2,1.2,3.6c-1.4,3.1,0,8.1,2.3,10.3c0,0,0.2-1.4,1.3-1
					c1.1,0.4,0,6.2-1.2,9.7c0,0,2.6-1.8,5.1-9.2c2.3-6.8,2.9-12.6,1.6-15.4L583.6,225.4L583.6,225.4z"/>
				<path class="st18" d="M593.3,243.4c-1,1.9-2.7,3.4-4.8,4c-2.7,0.9-4.2-1.6-3.5-4.2c0.6-2.3,2.8-5.7,5.6-5.4
					C593.4,238.2,594.5,241,593.3,243.4L593.3,243.4z"/>
				<path class="st26" d="M586.8,243.8c0.3-1.4,1.2-2.7,2.5-3.5c0.5-0.3,1.3-0.5,1.7-0.1"/>
				<path class="st13" d="M563.9,227.4c-1.6,0.4-3.3-0.1-4.5-1.3c2.2-0.1,4.4-0.8,6.4-2c-2,0.5-4.2,0-5.7-1.3c3-0.5,5.7-1.9,8.5-2.9
					c6.3-2.3,13.3-2.5,19.5-0.1c1.5,0.6,2.9,1.3,3.9,2.5c1,1.2,2,3.6,1.2,4.9l-10.1,0.5c-1.6-3-4.2-1.9-7.9,0.3
					c-1.5,0.9-4.9,2.6-6.6,3c-2.1,0.5-3.8,0.8-5.1,0.7c-2.3-0.1-3.2-0.8-4.6-1.8C561,229.1,562.3,228.9,563.9,227.4L563.9,227.4z"/>
			</g>
			<g>
				<path class="st13" d="M574.2,246.4c1.6-0.5,3.1-1.3,4.4-2.4c0.1,0.3,0.2,0.5,0.3,0.8c0.1,0.5,0.1,1,0,1.5
					c-0.3,1-1.1,2.1-3.5,2.8c-0.2,0.1-0.4,0.1-0.5,0.2c-0.4-0.9-1-1.9-1.5-2.7C573.4,246.7,573.7,246.6,574.2,246.4L574.2,246.4z"/>
				<path class="st10" d="M578.6,244.1c0.1,0.3,0.2,0.5,0.3,0.8c-0.5,0.9-2,1.7-4.3,2.3l-0.5-0.8C575.8,246,577.3,245.2,578.6,244.1
					L578.6,244.1z"/>
				<path class="st27" d="M576.5,247.7c0.8-0.6,1.6-1,2.5-1.3c-0.3,1-1.1,2.1-3.5,2.8C575.6,248.7,576,248.1,576.5,247.7z"/>
			</g>
		</g>
	</g>
</g>
<g id="freepik--Character_2--inject-2">
	<g id="freepik--freepik--character-1--inject-2--inject-2">
		<g>
			<path class="st28" d="M337.5,238.8l-7.3,5.9l-8,38.3l5.2,10.2l-2.5-0.4c-0.2,0.2-0.4,0.4-0.6,0.6l9.2,1.5c0-1.7,0-3.3,0-4.8
				c-1.4-0.2-2.2-0.3-2.2-0.3l0.8-4c-0.3-0.1-0.5-0.1-0.8-0.2c0,0,3-18.2,7.1-37.2c0.1-0.3,0.1-0.7,0.2-1c0.3-1.3,0.6-2.6,0.9-3.9
				c0.5-2,0.9-4,1.4-6c-1,0.6-2,1.3-3,1.9L337.5,238.8L337.5,238.8z"/>
			<path class="st15" d="M448.6,222.6c-0.7,0.6-2.8,2.4-4.4,4c-0.7,0.7-1.6,1.6-2.6,2.5c-0.1,0.1-0.2,0.2-0.4,0.3l-0.9,0.9
				c-0.5,0.4-0.9,0.8-1.1,1.1l-1.1,1c-0.6,0.6-1.1,1.4-1.5,2.2l-2.1,7.6c-4.9,4.8-15.4,14.6-16,14.3c-0.4-0.2-2.3-5.8-4.1-11.1
				l3.2-1.1l-0.5-1.6l-0.6,0.2c-1.1-3.9-7.3-26.8-9.6-29.3l0,0c-4.3-5-9.9-8.7-16-10.8c0.2-0.6,0.4-1.2,0.6-1.7
				c2.5,1.2,5.4,1.4,8.2,0.3c2.9-1,5.2-3.1,6.6-5.7c0.2-0.4,0.4-0.7,0.5-1.1c0.7-1.7,1.2-4,1.6-6.5c1.6-0.2,3-1.5,3.3-3.2
				c0.1-1.8-1-3.4-2.6-4.1c0.4-1.8,0.5-3.6,0.4-5.2c1.6-1.5,2.5-3.5,2.4-5.7c-0.3-3.3-5-3.9-5-3.9s-1.4-3.8-4.5-4.9
				c-3.1-1.1-6.2,1.7-6.2,1.7s-3.8-3.7-8.3-2.6c-3.1,0.6-5.3,3.3-5.3,6.5c0,0-5.2,0.5-5.1,3.2c0.1,2.5,2.7,4.2,3.1,4.5
				c-0.2,2.2-0.1,4.8,0.3,8.1c-0.4,0.5-0.6,1.2-0.6,1.8c0,0.5,0.1,1,0.3,1.5c0.3,1,0.9,1.9,1.5,2.7c0.5,1.7,1.2,3.1,1.8,4.2
				c-1.4,3.1-3.1,6-5,8c-7.3-0.3-12.4-0.1-16.3,0.8c-0.1,0-0.1,0-0.2,0c-0.3,0.1-0.5,0.1-0.7,0.2c-0.5,0.1-1.1,0.3-1.6,0.4
				c-5.7,1-11,3.7-15.2,7.8c-6.5,6-17.1,16.4-17.1,16.4l0,0c-5.1,4.8-9.6,9.3-10.7,10.8c-2.8,4-2.6,44.1-2.6,44.1s-1.2,2.5-1.3,4.3
				c0,0.7-0.3,4.1-0.4,6l-17.5-2.8c-2.9-0.5-5.6,1.5-6,4.4l-4.8,30.4c-0.5,2.9,1.5,5.6,4.4,6l43.9,7c0,0.1,0,0.2,0,0.3h27.5
				c0.5-6,0.9-11.6,1.3-16.3c0,0,0,0.1,0,0.1l0,0c0,0,1,8.9,1.8,16.2h23.1c-1.3-16.9-3.2-31.7-4.9-43.1c0.3,0,0.6,0,1,0l-0.5-2.6
				c0.2,0,0.3,0,0.5,0l0,0c0-0.1,0-1.9,0.2-4.9c0-0.4,0.1-0.8,0.1-1.2c0.1-1.7,0.3-3.8,0.6-6c0.1-0.9,0.3-1.9,0.4-2.8
				c0.9-5.8,2.5-12.3,5-17.7c2.4-5,4.7-10.2,6.8-15.3l2.1,3.8l1.2,2.1l-0.7,0.3l0.5,1.4l2.2-0.8c3.9,10,9.4,22.5,13.8,23.8
				c6.7,2.1,22-22.8,25.2-28.2c3.2-1.1,5.6-5.9,5.6-5.9l2.7-3.6c0.9-1.2,0.8-2.9-0.2-4.1l-2.6-2.7l0,0c1-1.2,4.1-4.1,4.3-5.2
				C450.3,223.1,449.2,222,448.6,222.6L448.6,222.6z M339.6,243.6c-0.3,1.3-0.6,2.6-0.9,3.9c-0.1,0.3-0.1,0.7-0.2,1
				c-4.1,19-7.1,37.2-7.1,37.2c0.3,0.1,0.5,0.1,0.8,0.2l-0.8,4c0,0,0.8,0.1,2.2,0.3c0,1.5,0,3.1,0,4.8l-9.2-1.5
				c0.2-0.2,0.4-0.4,0.6-0.6l2.5,0.4l-5.2-10.2l8-38.3l7.3-5.9l0.5,0.7c1-0.6,2-1.3,3-1.9C340.5,239.6,340,241.6,339.6,243.6
				L339.6,243.6z"/>
		</g>
		<g>
			<polygon class="st18" points="369.7,462.6 378.7,461.8 380.4,442.4 368.4,444 			"/>
			<g>
				<path class="st13" d="M379.9,455.8h-3.1c-0.7,0-1.4,0.4-1.8,0.9c-1.8,2.5-3.2,1.5-5.1-0.8c-1.2-0.1-1.6,1.3-1.7,1.7l-2.3,8.5
					c-0.2,0.7,0.2,1.5,0.9,1.7c0.1,0,0.3,0.1,0.4,0.1H392c3.9,0,4.8-4,3.1-4.3c-7.3-1.6-12.5-3.8-14.8-5.9
					C380,457.2,380.4,456.9,379.9,455.8L379.9,455.8z"/>
				<path class="st8" d="M386.7,458.2c0.3-0.2,0.5-0.6,0.5-1c0-0.2-0.1-0.4-0.3-0.6c-1-0.7-4.9,1.1-5.3,1.4c0,0-0.1,0.1-0.1,0.1
					c0,0.1,0,0.2,0.1,0.2c1,0.2,1.9,0.4,2.9,0.4C385.3,458.7,386.1,458.6,386.7,458.2z M386.8,456.9c0.1,0,0.1,0.1,0.1,0.2
					c0,0.3-0.2,0.6-0.4,0.7c-0.9,0.7-3,0.4-4.2,0.2C383.9,457.3,386.2,456.5,386.8,456.9z"/>
				<path class="st8" d="M381.8,458.3c1.2-0.5,3.6-2.4,3.5-3.4c0-0.2-0.2-0.5-0.7-0.5c-2.1-0.2-3.1,3.6-3.1,3.8c0,0.1,0,0.1,0.1,0.2
					C381.6,458.3,381.7,458.3,381.8,458.3L381.8,458.3z M384.5,454.6c0.4,0,0.4,0.2,0.4,0.2c0.1,0.6-1.7,2.2-3,2.9
					c0.3-0.9,1.1-3.2,2.4-3.2L384.5,454.6L384.5,454.6z"/>
				<path class="st14" d="M382.1,458.2c-1.1,0.1-2.1,0.8-2.7,1.7"/>
				<path class="st14" d="M384,459.6c-1.1,0.1-2.1,0.8-2.7,1.7"/>
				<path class="st14" d="M386.5,460.9c-1.1,0.1-2.1,0.8-2.7,1.7"/>
			</g>
		</g>
		<g>
			<polygon class="st18" points="325.6,462.7 334.1,462.7 338.2,443 326.1,443 			"/>
			<g>
				<path class="st13" d="M335.9,457h-3.1c-0.7,0-1.4,0.4-1.8,0.9c-1.8,2.5-3.2,1.5-5.1-0.8c-1.2-0.1-1.6,1.3-1.7,1.7l-2.3,8.5
					c-0.2,0.7,0.2,1.5,0.9,1.7c0.1,0,0.3,0.1,0.4,0.1h24.8c3.9,0,4.8-4,3.1-4.3c-7.3-1.6-12.5-3.8-14.8-5.9
					C335.9,458.4,336.3,458.1,335.9,457L335.9,457z"/>
				<path class="st8" d="M342.7,459.4c0.3-0.2,0.5-0.6,0.5-1c0-0.2-0.1-0.4-0.3-0.6c-1-0.7-4.9,1.1-5.3,1.4c0,0-0.1,0.1-0.1,0.1
					c0,0.1,0,0.2,0.1,0.2c1,0.2,1.9,0.4,2.9,0.4C341.3,460,342,459.8,342.7,459.4L342.7,459.4z M342.7,458.1c0.1,0,0.1,0.1,0.1,0.2
					c0,0.3-0.2,0.6-0.4,0.7c-0.9,0.7-3,0.4-4.2,0.2C339.9,458.6,342.2,457.8,342.7,458.1L342.7,458.1z"/>
				<path class="st8" d="M337.8,459.6c1.2-0.5,3.6-2.4,3.5-3.4c0-0.2-0.2-0.5-0.7-0.5c-2.1-0.2-3.1,3.6-3.1,3.8c0,0.1,0,0.1,0.1,0.2
					C337.6,459.5,337.6,459.5,337.8,459.6L337.8,459.6z M340.5,455.9c0.4,0,0.4,0.2,0.4,0.2c0.1,0.6-1.7,2.2-3,2.9
					c0.3-0.9,1.1-3.2,2.4-3.2L340.5,455.9L340.5,455.9z"/>
				<path class="st14" d="M338.1,459.4c-1.1,0.1-2.1,0.8-2.7,1.7"/>
				<path class="st14" d="M340,460.9c-1.1,0.1-2.1,0.8-2.7,1.7"/>
				<path class="st14" d="M342.4,462.1c-1.1,0.1-2.1,0.8-2.7,1.7"/>
			</g>
		</g>
		<g>
			<path class="st13" d="M328.7,269.7H374c2.7,14.8,8.8,53.1,9.6,97.9c0.5,30.8,1.3,80.5,0,83.2l-18,0.1c0,0-0.8-38.4-3.2-76.6
				c-1.4-22-5.1-59.2-5.5-60.5c-1.6,19.4-4.2,54.4-5.8,65.4c-3.9,27.1-8.6,72.2-8.6,72.2h-18.8c0,0,1.5-48.2,2.9-74.8
				C328.2,347.6,328.7,275.6,328.7,269.7z"/>
			<path class="st23" d="M356.8,313.9c0,0,1.8,16.5,2.5,23.1c1.3-17.2,2.5-29.6,2.5-29.6L356.8,313.9L356.8,313.9z"/>
		</g>
		<path class="st18" d="M432,232.9c-0.6,0.9-17.6,17.2-18.4,16.8c-0.8-0.5-7.3-21-7.3-21l-14.7,1.6c0,0,10.9,34.5,18.4,36.8
			s25.8-29.2,25.8-29.2"/>
		<g>
			<path class="st8" d="M327.5,277.6l-1,5.5c0,0,31.6,4.1,51.3,4l-0.7-3.7L327.5,277.6L327.5,277.6z"/>
			<path class="st8" d="M385.5,226.3l1.3,2.4l6.2,11.5l1.3,2.4l17.5-6.1c0,0-7.3-27.1-9.8-29.9L385.5,226.3z"/>
			<path class="st22" d="M385.5,226.3l1.3,2.4l6.2,11.5l1.3,2.4l17.5-6.1c0,0-7.3-27.1-9.8-29.9L385.5,226.3z"/>
			<path class="st23" d="M386.8,228.7l6.2,11.5c3.9-7.6,2.7-17.9,2.7-17.9L386.8,228.7z"/>
			<path class="st8" d="M402,206.7c-6.6-7.7-16.2-12.3-26.3-12.8c-17.1-0.8-22.5,0.9-28.7,6.5c-9.1,8.2-20.5,78.4-20.5,78.4
				c16.7,4.6,34,6.5,51.3,5.6c0,0,0.2-19.5,6.4-32.7C391.1,237.1,397.1,222.1,402,206.7L402,206.7z"/>
			<path class="st22" d="M326.4,278.8c16.7,4.6,34,6.5,51.3,5.6c0,0,0-2.4,0.3-6.1c0.1-1.7,0.3-3.8,0.6-6s0.7-4.7,1.1-7.2
				c0.3-1.3,0.6-2.7,0.9-4c0.8-3.2,1.9-6.3,3.3-9.3c0.8-1.6,1.5-3.2,2.2-4.8c1.2-2.7,2.4-5.4,3.4-7.9c2.3-5.3,4.3-10.2,5.9-14.5
				c1.1-3.1,2.2-5.8,3-8.2c0.9-2.6,1.7-4.8,2.2-6.4c0.7-2.1,1-3.3,1-3.3c-0.6-0.7-1.2-1.4-1.8-2c-6.4-6.3-14.9-10.1-23.9-10.7h-0.6
				c-13-0.6-19.3,0.2-24.2,3.1c-1.6,1-3.1,2.1-4.5,3.4c-1.3,1.4-2.3,3-3,4.8c-2.1,4.9-3.9,10-5.2,15.2l-0.8,2.8
				c-1.1,4.3-2.2,8.8-3.3,13.4c-0.3,1.3-0.6,2.6-0.9,3.9c-0.4,2-0.9,4-1.3,6c-1,5-2,9.8-2.8,14.1c-1.1,6.2-2.1,11.4-2.6,14.6
				C326.7,277.6,326.4,278.8,326.4,278.8L326.4,278.8z M376.7,194.6c1.2,0,2.3,0.1,3.4,0.3c4.6,0.6,11.7,4.3,11.5,6.1
				c-0.2,1.7-2.9,6.2-9.7,5.1c-2.4-0.4-4.7-1.4-6.7-2.8c-3.8-2.5-6.6-5.9-6.8-7C368.1,194.9,372.5,194.5,376.7,194.6L376.7,194.6
				L376.7,194.6z"/>
			<path class="st23" d="M333.7,240.6c10.9-4.5,19.4-23.1,19.4-23.1l-6.2-3.7l-8.4,6.7l-0.8,2.8c-1.1,4.3-2.2,8.8-3.3,13.4
				C334.3,238,334,239.3,333.7,240.6L333.7,240.6z"/>
			<polygon class="st8" points="393.5,242.6 412.2,235.7 412.7,237.3 394,244 			"/>
			<path class="st8" d="M279.7,316.8l4.8-30.4c0.5-2.9,3.2-4.8,6-4.4l55.8,8.8c2.9,0.5,4.8,3.2,4.4,6l-4.8,30.4
				c-0.5,2.9-3.2,4.8-6,4.4l-55.8-8.8C281.2,322.4,279.3,319.7,279.7,316.8z"/>
			<polyline class="st29" points="310,299.1 298.9,304.8 307.6,313.6 			"/>
			<polyline class="st29" points="320.5,315.7 331.5,310 322.8,301.1 			"/>
			<line class="st29" x1="311.5" y1="314.2" x2="319" y2="300.5"/>
			<path class="st18" d="M340.5,203.4c0,0-25.4,23-28.2,26.9c-2.8,4-2.6,44.1-2.6,44.1s-1.2,2.5-1.3,4.3c0,1-0.5,6.8-0.4,7.4
				c0,0,3.4,9.4,11.9-0.1l2.5,0.4l-5.2-10.2l8-38.3l19.9-16.1L340.5,203.4L340.5,203.4z"/>
			<path class="st8" d="M356.2,195.1c3,6.3,0.7,19.6-4.8,24.3c-5.8,4.8-12,9.2-18.4,13.2l-10-13.1c0,0,10.7-10.4,17.1-16.4
				C344.5,198.8,350.1,196,356.2,195.1L356.2,195.1z"/>
			<path class="st22" d="M356.2,195.1c3,6.3,0.7,19.6-4.8,24.3c-5.8,4.8-12,9.2-18.4,13.2l-10-13.1c0,0,10.7-10.4,17.1-16.4
				C344.5,198.8,350.1,196,356.2,195.1L356.2,195.1z"/>
		</g>
		<g>
			<path class="st18" d="M370.7,196.3c1.9,5.3,8.7,7.7,12.3,8c2.7,0.4,5.4-1,6.6-3.5c0,0-4.1-2.1-3.7-4.4c0.3-1.4,0.9-2.8,1.7-3.9
				c0.4-0.7,0.9-1.3,1.4-1.9l-6.6-14.2C380.9,182.5,376.4,194.3,370.7,196.3z"/>
			<path class="st23" d="M382.1,182.9c-3.1,6.9,1.3,11.6,3.8,13.5c0.3-1.4,0.9-2.8,1.7-3.9L382.1,182.9L382.1,182.9z"/>
			<path class="st18" d="M404.3,164.5c0,0,2.1,11.7-4,16.4c-6.1,4.7-6.7-17.1-6.7-17.1L404.3,164.5L404.3,164.5z"/>
			<path class="st30" d="M404.3,164.5c0,0,2.1,11.7-4,16.4c-6.1,4.7-6.7-17.1-6.7-17.1L404.3,164.5L404.3,164.5z"/>
			<path class="st18" d="M382.5,190.7c2.8,3.9,7.8,5.4,12.3,3.8c2.9-1,5.2-3.1,6.6-5.7c0.2-0.4,0.4-0.7,0.5-1.1
				c2.9-7.3,3.4-25-4.2-24.3c-6.3,0.5-12.6-1.4-15.8,4.1c-0.9,1.6-1.5,3.3-1.6,5.1C379.7,180.9,378.9,185.8,382.5,190.7L382.5,190.7
				z"/>
			<path class="st13" d="M392.7,176.7c-0.1,0.7,0.2,1.3,0.6,1.3c0.4,0.1,0.9-0.4,1-1.1c0.1-0.7-0.2-1.3-0.6-1.3
				C393.2,175.5,392.8,176,392.7,176.7L392.7,176.7z"/>
			<path class="st13" d="M400.4,177.7c-0.1,0.7,0.2,1.3,0.6,1.3c0.4,0.1,0.9-0.4,1-1.1c0.1-0.7-0.2-1.3-0.6-1.3
				C400.9,176.5,400.5,177.1,400.4,177.7L400.4,177.7z"/>
			<path class="st31" d="M397.9,177.7c0.5,2.2,1.3,4.3,2.4,6.3c-1,0.5-2.3,0.6-3.4,0.1L397.9,177.7L397.9,177.7z"/>
			<path class="st13" d="M390.7,173.8c0.1,0,0.3,0,0.4-0.1c0.7-0.7,1.7-1.1,2.7-1c0.2,0,0.4-0.1,0.5-0.3c0-0.2-0.1-0.4-0.3-0.5l0,0
				l0,0c-1.3-0.2-2.5,0.2-3.4,1.1c-0.2,0.2-0.2,0.4,0,0.6l0,0C390.6,173.8,390.6,173.8,390.7,173.8L390.7,173.8z"/>
			<path class="st13" d="M404.1,175.6c0.1,0,0.2,0,0.2,0c0.2-0.1,0.3-0.3,0.3-0.5l0,0l0,0c-0.4-1.2-1.3-2.2-2.6-2.6
				c-0.2-0.1-0.4,0.1-0.5,0.3l0,0l0,0c-0.1,0.2,0.1,0.4,0.3,0.5l0,0c1,0.4,1.7,1.1,2,2.1C403.8,175.4,403.9,175.5,404.1,175.6
				L404.1,175.6z"/>
			<path class="st32" d="M391.6,184.5c0,0,1.4,3,4.3,2.9"/>
			<path class="st18" d="M387.9,163l0.1,3.7c-1.4,0.5-2.1,2-1.7,3.3c0.9,3.2-1.3,7.9-3.9,9.6c0,0,0-1.4-1.1-1.1
				c-1.1,0.2-1.5,7.3,0.4,10.8c0,0-4.1-3.7-5.3-11.3c-1.1-7-0.9-11.4,0-14.7L387.9,163L387.9,163z"/>
			<path class="st30" d="M387.9,163l0.1,3.7c-1.4,0.5-2.1,2-1.7,3.3c0.9,3.2-1.3,7.9-3.9,9.6c0,0,0-1.4-1.1-1.1
				c-1.1,0.2-1.5,7.3,0.4,10.8c0,0-4.1-3.7-5.3-11.3c-1.1-7-0.9-11.4,0-14.7L387.9,163L387.9,163z"/>
			<path class="st13" d="M375.8,167.5c4.1,0.4,8.2,0.1,12.3-0.7c11.6-2.3,16.5,2,16.5,2c1.6-1.5,2.5-3.6,2.4-5.7
				c-0.3-3.3-5-3.9-5-3.9s-1.4-3.8-4.5-4.9c-3.1-1.1-6.2,1.7-6.2,1.7s-3.8-3.7-8.3-2.6c-3.1,0.6-5.3,3.3-5.3,6.5
				c0,0-5.2,0.5-5.1,3.2C372.8,165.6,375.8,167.5,375.8,167.5L375.8,167.5z"/>
			<path class="st32" d="M393.6,172.9c2.1,0,3.8,1.9,3.8,4.3s-1.7,4.3-3.8,4.3s-3.8-1.9-3.8-4.3S391.5,172.9,393.6,172.9z"/>
			<path class="st32" d="M406.8,177.9c-0.3,2.1-2.2,3.5-4.3,3.2s-3.5-2.2-3.2-4.3c0.3-1.9,1.9-3.3,3.8-3.3
				C405.3,173.7,406.9,175.6,406.8,177.9L406.8,177.9z"/>
			<path class="st32" d="M397.3,177.7c0,0,1.2-0.8,1.9,0.1"/>
			<path class="st32" d="M389.8,177.2l-6.6-0.9c-0.9-0.1-1.7,0.1-2.4,0.7l-0.3,0.2"/>
			<path class="st18" d="M375.7,178.8c0.7,2,2.1,3.7,4,4.7c2.5,1.3,4.3-0.9,4.1-3.5c-0.2-2.4-1.8-5.9-4.6-6.1
				c-2-0.1-3.6,1.5-3.7,3.5C375.5,177.8,375.5,178.3,375.7,178.8z"/>
		</g>
		<path class="st18" d="M445.2,217.3c0.2-1.1-0.9-2.2-1.6-1.6c-0.7,0.6-2.8,2.4-4.4,4c-0.7,0.7-1.6,1.6-2.6,2.5
			c-0.1,0.1-0.2,0.2-0.4,0.3l-0.9,0.9c-0.5,0.4-0.9,0.8-1.1,1.1l-1.1,1c-0.6,0.6-1.1,1.4-1.5,2.2l-2.2,7.8l3.4,3.4c4.2,1.4,8-6,8-6
			l2.7-3.6c0.9-1.2,0.8-2.9-0.2-4.1l-2.6-2.7l0,0C441.9,221.3,445,218.4,445.2,217.3L445.2,217.3z"/>
	</g>
</g>
<g id="freepik--character-2--inject-57">
	<path class="st13" d="M209.8,170.7c0.5-0.1,0.9,0.4,1,1.1c0.1,0.7-0.1,1.3-0.6,1.4s-0.9-0.4-1-1.1
		C209.2,171.5,209.3,170.8,209.8,170.7z"/>
	<path class="st33" d="M211,179.8c1.2,0.1,2.3-0.4,3.1-1.2c-1.7-1.5-3.2-3.3-4.4-5.2L211,179.8z"/>
	<path class="st13" d="M206.3,168.8c0.7-0.8,1.7-1.2,2.7-1.1l0,0c0,0,0.1,0,0.1,0c0.2,0,0.4-0.2,0.4-0.4c0,0,0,0,0,0
		c0-0.2-0.2-0.4-0.4-0.4c0,0,0,0,0,0c-1.3-0.2-2.6,0.3-3.5,1.3c-0.1,0.1-0.1,0.2-0.1,0.3c0,0.2,0.2,0.4,0.4,0.4c0,0,0,0,0,0
		C206.1,168.8,206.2,168.8,206.3,168.8z"/>
	<path class="st18" d="M200.9,210.1c-11.7-0.1-13.4-6.5-13.4-6.5c3.5-3.3,3.9-9.6,3.2-15.2c0.9,1.3,2.1,2.5,3.4,3.4
		c2.5,1.8,5.6,2.4,8.5,1.7c0,0,0.1,0,0.1,0c0,0.1,0,0.2-0.1,0.3c-0.8,4.4-0.3,9.2,4.4,10.7C207.2,204.5,213.8,210.2,200.9,210.1z"/>
	<path class="st18" d="M203.3,191.8c-0.1,0.5-0.3,1.1-0.4,1.6c0,0-0.1,0-0.1,0c-3,0.7-6.1,0-8.5-1.7c-1.3-0.9-2.5-2.1-3.4-3.4
		c-0.1-1.4-0.4-2.8-0.6-4.1l12.6,7.2L203.3,191.8z"/>
	<path class="st18" d="M211.8,182.5c-0.2,4.1-2.4,7.8-6,9.8l0,0c0,0,0,0,0,0c-0.9,0.5-1.9,0.9-2.9,1.2c0,0-0.1,0-0.1,0
		c-3,0.7-6.1,0-8.5-1.7c-1.3-0.9-2.5-2.1-3.4-3.4c-2.2-3.2-3.1-7.4-4.6-13.4c-1.7-6.2,2-12.6,8.2-14.3c1.8-0.5,3.6-0.5,5.4-0.2
		C208.6,162.4,212.2,174.6,211.8,182.5z"/>
	<path class="st11" d="M205.8,192.3c-0.9,0.5-1.9,0.9-2.9,1.2c0,0,0.4-5.2,0.4-5.2S205.2,192.3,205.8,192.3z"/>
	<path class="st18" d="M208.7,175.8c-0.6,0.5-1.3,1-2,1.4c-3.1,1.4-1.8,8.2-4.5,10.2c-0.1,0.1-0.3,0.2-0.4,0.3l-0.4,0.2l0,0l-5.8,3
		l-4.7-2.5c0,0-5.8-5-8.5-9.7c8.9-1.8,17.3-5.4,24.8-10.6c0.1,0.5,0.2,1,0.2,1.4c0.1,1-1.3,2.3-0.8,2.8
		C207.5,173.3,208.2,174.5,208.7,175.8z"/>
	<path class="st15" d="M208.7,175.8c-0.6,0.5-1.3,1-2,1.4c-3.1,1.4-1.8,8.2-4.5,10.2c-0.1,0.1-0.3,0.2-0.4,0.3l-0.4,0.2l0,0l-5.8,3
		l-4.7-2.5c0,0-5.8-5-8.5-9.7c8.9-1.8,17.3-5.4,24.8-10.6c0.1,0.5,0.2,1,0.2,1.4c0.1,1-1.3,2.3-0.8,2.8
		C207.5,173.3,208.2,174.5,208.7,175.8z"/>
	<path class="st13" d="M207.1,168.1c-7.5,5.2-15.9,8.8-24.8,10.6c-0.1-0.2-0.3-0.5-0.4-0.7c-0.5-1-0.9-2.1-1-3.2
		c-0.4-5.3,1.8-11.9,7.6-14.1c4.3-1.5,8.7-2.7,13.2-3.5c0,0,3.8,1,4.1,3c0.2,1,0,2.1-0.5,3.1c0.8,1.4,1.4,2.9,1.7,4.4L207.1,168.1z"
		/>
	<path class="st18" d="M203.4,171.6c2.5,0.8,3.7,4.4,3.7,6.7c0.1,2.6-1.7,4.1-3.8,2.4c-1.6-1.3-2.8-3.2-3.3-5.3
		C199.4,172.9,201,170.8,203.4,171.6z"/>
	<g id="freepik--group--inject-57">
		<path class="st8" d="M184.3,205c0,0,1.8-5.3,4.5-6.9s14,0.4,15.8,1.1s3.5,4.9,3.5,4.9L184.3,205z"/>
		<path class="st16" d="M184.3,205c0,0,1.8-5.3,4.5-6.9s14,0.4,15.8,1.1s3.5,4.9,3.5,4.9L184.3,205z"/>
		<polygon class="st8" points="207.1,251.1 229.5,247.5 226.9,238.8 204.3,240.9 		"/>
		<polygon class="st11" points="207.1,251.1 229.5,247.5 226.9,238.8 204.3,240.9 		"/>
		<path class="st8" d="M211.5,203.3c-1.8-0.3-3.7-0.6-5.7-0.8c-6.1-0.4-12.1-0.5-18.2-0.2l-4,0.3c-6.4,0.3-12.9,5.7-11.7,12
			c6.3,34.4,3.9,53.6,3.1,59.1l42.8,0.4c5.2-35.2,4.3-53,2.8-61.6C219.8,207.8,216.2,204.1,211.5,203.3z"/>
		<path class="st34" d="M219.5,261.7l-1.6,12.4c3.3-25.4,4.6-36,3.6-53.7l-11.1-3.5C217.3,240,214.8,245.7,219.5,261.7z"/>
		<path class="st8" d="M193.3,477.2c-0.1,0-0.2-0.1-0.2-0.2c0-0.1,0-0.2,0.1-0.2c0.2-0.1,3.1-1.8,4.5-1.4c0.3,0.1,0.5,0.2,0.6,0.5
			c0.2,0.3,0.2,0.6,0,0.9c-0.4,0.5-1.4,0.6-2.5,0.6C195,477.4,194.1,477.3,193.3,477.2z M197.3,475.8c-1.2,0.1-2.3,0.5-3.3,1.1
			c1.6,0.2,3.7,0.2,4.1-0.3c0.1-0.1,0.1-0.2,0-0.5c-0.1-0.1-0.2-0.3-0.4-0.3C197.5,475.8,197.4,475.8,197.3,475.8L197.3,475.8z"/>
		<path class="st8" d="M193.2,477.1c-0.1,0-0.1-0.1-0.1-0.2c0-0.1,0.2-2.4,1.3-3.3c0.3-0.3,0.7-0.4,1.1-0.3c0.5,0,0.8,0.3,0.8,0.6
			c0.2,1-1.9,2.8-2.9,3.3h-0.1C193.3,477.2,193.2,477.2,193.2,477.1z M195.4,473.7c-0.3,0-0.5,0.1-0.7,0.3c-0.6,0.7-1,1.7-1.1,2.6
			c1-0.6,2.4-2.1,2.3-2.7C195.9,474,195.9,473.8,195.4,473.7L195.4,473.7L195.4,473.7z"/>
		<polygon class="st18" points="184.7,457.4 193.2,457.4 192.5,476.9 183.9,476.9 		"/>
		<path class="st13" d="M194.5,476.6c5.8,3.6,7.6,3.7,14.3,5.2c1.5,0.3,0.5,3.9-3,3.9c-5.8,0-6.4-0.3-11.4-0.3
			c-4.2,0-9.1,0.2-12.5,0.2h-0.3c-0.7-0.2-1.1-0.8-0.9-1.5l1.6-7.6c0.1-0.3,0.4-0.6,0.7-0.6h9.3C193.1,476,193.9,476.2,194.5,476.6z
			"/>
		<polygon class="st11" points="184.7,457.4 184.3,467.4 192.8,467.4 193.2,457.4 		"/>
		<polygon class="st18" points="126.9,457.2 135.2,457.8 130.3,477.6 122,477 		"/>
		<path class="st13" d="M120.5,475.7c-2.6,2.4-3.9,3.6-10.7,4.8c-1.5,0.3-0.7,3.8,2.8,4c5.8,0.2,2.6-0.2,7.6,0
			c4.2,0.1,7.8,0.5,11.1,0.6c0.1,0,0.2,0,0.3,0c0.7-0.1,1.1-0.8,1-1.4c0,0,0,0,0,0l-1.4-7.6c-0.1-0.3-0.4-0.6-0.7-0.6l-8-0.3
			C121.9,475,121.1,475.2,120.5,475.7z"/>
		<polygon class="st11" points="126.9,457.2 124.4,467.4 132.7,468 135.2,457.8 		"/>
		<path class="st8" d="M175,273.6c-3.1,5-5.8,10.3-7.9,15.8c-4.5,12.3-2.9,18.7-4.4,27c-2.7,14.6-6.7,25.9-9.5,37
			c-8.8,34.8-30.5,108.1-30.5,108.1l14.9,3.3c0,0,30.9-85.2,38.8-110.1c7.1-22.4,25.3-81.1,25.3-81.1L175,273.6z"/>
		<path class="st21" d="M175,273.6c-3.1,5-5.8,10.3-7.9,15.8c-4.5,12.3-2.9,18.7-4.4,27c-2.7,14.6-6.7,25.9-9.5,37
			c-8.8,34.8-30.5,108.1-30.5,108.1l14.9,3.3c0,0,30.9-85.2,38.8-110.1c7.1-22.4,23.4-81.2,23.4-81.2L175,273.6z"/>
		<path class="st8" d="M121,458.8l-0.2,5.3l18,2c0,0,1.6-5.8,1.5-5.8L121,458.8z"/>
		<path class="st16" d="M121,458.8l-0.2,5.3l18,2c0,0,1.6-5.8,1.5-5.8L121,458.8z"/>
		<path class="st15" d="M193.4,300.7c-5.7,18.5-13,41.8-16.9,54c-0.2,0.6-0.4,1.2-0.6,1.9c1.5-20.5,5.5-54.8,15.8-56
			C192.3,300.5,192.9,300.5,193.4,300.7z"/>
		<path class="st8" d="M188.8,273.6c0,0-4.4,56.4-4.9,83c-0.5,24.8-1.9,108.9-1.9,108.9h14.4c0,0,10.1-85.6,12.6-110.8
			c2.4-23.8,8.7-80.6,8.7-80.6L188.8,273.6z"/>
		<path class="st21" d="M188.8,273.6c0,0-4.4,56.4-4.9,83c-0.5,24.8-1.9,108.9-1.9,108.9h14.4c0,0,10.1-85.6,12.6-110.8
			c2.4-23.8,8.7-80.6,8.7-80.6L188.8,273.6z"/>
		<path class="st8" d="M179.9,460.4l0.5,5.3h17.5c0,0,0.8-5.9,0.8-5.9L179.9,460.4z"/>
		<path class="st16" d="M179.9,460.4l0.5,5.3h17.5c0,0,0.8-5.9,0.8-5.9L179.9,460.4z"/>
		<path class="st8" d="M121.3,475.3c0,0.1,0,0.2-0.1,0.2c-0.1,0.1-0.2,0.1-0.2,0c-0.1-0.1-2.8-2.2-3-3.7c0-0.3,0-0.5,0.2-0.8
			c0.2-0.3,0.5-0.4,0.8-0.4c0.6,0.1,1.1,1,1.5,2.1C120.9,473.6,121.2,474.5,121.3,475.3z M118.6,472.2c0.6,1,1.3,1.9,2.2,2.7
			c-0.4-1.5-1.2-3.5-1.9-3.7c-0.1-0.1-0.2,0-0.4,0.2c-0.1,0.1-0.1,0.3-0.1,0.5C118.4,472,118.5,472.1,118.6,472.2L118.6,472.2z"/>
		<path class="st8" d="M121.4,475.4c0,0.1-0.1,0.1-0.1,0.1c-0.1,0-2.3,0.8-3.5,0c-0.4-0.2-0.6-0.5-0.7-0.9c-0.2-0.5,0-0.8,0.2-0.9
			c0.8-0.5,3.3,0.7,4.1,1.4v0.1C121.3,475.3,121.4,475.4,121.4,475.4z M117.4,474.7c0.1,0.2,0.3,0.4,0.5,0.5c0.9,0.3,1.9,0.3,2.8,0
			c-1-0.7-2.8-1.5-3.3-1.1c-0.1,0-0.2,0.1-0.1,0.4L117.4,474.7L117.4,474.7z"/>
	</g>
	<g class="st35">
		<path class="st10" d="M200,276.2c5,0,11.4,0.1,15.7-0.1l-0.4,3.4c-5.1,0.6-10.2,0.9-15.3,0.8L200,276.2z"/>
		<path class="st10" d="M186.1,275.8c3.4,0.1,9.3,0.4,12.1,0.3l-0.1,4.1c-2.5,0-2.2,0-5.1,0l-7.4-0.3L186.1,275.8z"/>
		<path class="st10" d="M175.4,275.2c2.1,0.2,6.8,0.4,8.8,0.6l-0.5,4.1c-2.3-0.2-7.7-0.3-9.8-1.6L175.4,275.2z"/>
	</g>
	<path class="st18" d="M233.6,236.2l1.2-0.2c2.4-0.3,4.3,4.2,4.3,4.2c-0.1,1.5-1.1,2.7-2.6,3.2l-10.4,3.5l-0.3-6.5l3.7-2.7
		C230.7,237,232.1,236.4,233.6,236.2z"/>
	<path class="st8" d="M235.3,249.9c5.6-3.4-6.6-30.6-13-40.5c-5.3-8.2-16.3-6-16.3-6C221.2,248.6,227.5,254.6,235.3,249.9z"/>
</g>
</svg>
