<?xml version="1.0" encoding="UTF-8" standalone="no"?>
<!-- Created with Inkscape (http://www.inkscape.org/) -->

<svg
   version="1.1"
   id="svg2"
   width="4500.8135"
   height="3002"
   viewBox="0 0 4500.8135 3002"
   sodipodi:docname="drawing282.eps"
   xmlns:inkscape="http://www.inkscape.org/namespaces/inkscape"
   xmlns:sodipodi="http://sodipodi.sourceforge.net/DTD/sodipodi-0.dtd"
   xmlns="http://www.w3.org/2000/svg"
   xmlns:svg="http://www.w3.org/2000/svg">
  <defs
     id="defs6" />
  <sodipodi:namedview
     id="namedview4"
     pagecolor="#ffffff"
     bordercolor="#000000"
     borderopacity="0.25"
     inkscape:showpageshadow="2"
     inkscape:pageopacity="0.0"
     inkscape:pagecheckerboard="0"
     inkscape:deskcolor="#d1d1d1" />
  <g
     id="g8"
     inkscape:groupmode="layer"
     inkscape:label="ink_ext_XXXXXX"
     transform="matrix(1.3333333,0,0,-1.3333333,0,3002)">
    <g
       id="g10"
       transform="scale(0.1)">
      <path
         d="M 33756.1,1812.4 C 33756.1,811.398 26199.5,0 16878,0 7556.55,0 0,811.398 0,1812.4 c 0,1000.9 7556.55,1812.4 16878,1812.4 9321.5,0 16878.1,-811.5 16878.1,-1812.4"
         style="fill:#e1e0de;fill-opacity:1;fill-rule:nonzero;stroke:none"
         id="path12" />
      <path
         d="m 18213.8,16915.7 h -3592.2 c -903.8,0 -1643.2,-739.5 -1643.2,-1643.2 V 8979.7 c 0,-903.8 739.4,-1643.3 1643.2,-1643.3 h 3592.2 c 903.8,0 1643.2,739.5 1643.2,1643.3 v 6292.8 c 0,903.7 -739.4,1643.2 -1643.2,1643.2"
         style="fill:#b16e2f;fill-opacity:1;fill-rule:nonzero;stroke:none"
         id="path14" />
      <path
         d="m 17680.1,16565.2 h -2524.8 c -784.3,0 -1426,-641.7 -1426,-1426 V 8762.4 c 0,-784.3 641.7,-1426 1426,-1426 h 2524.8 c 784.3,0 1426,641.7 1426,1426 v 6376.8 c 0,784.3 -641.7,1426 -1426,1426"
         style="fill:#854f23;fill-opacity:1;fill-rule:nonzero;stroke:none"
         id="path16" />
      <path
         d="m 20607.5,2402.8 v 0 c 56.7,0 100,41.9 91.5,88.4 l -1173.6,5450.4 h -420.2 l 1411.2,-5475.8 c 8.1,-36.5 46.4,-63 91.1,-63"
         style="fill:#ccccc9;fill-opacity:1;fill-rule:nonzero;stroke:none"
         id="path18" />
      <path
         d="m 17864.3,2402.8 h 2.3 c 52.6,0 94.7,36.4 92.4,80.1 l -330,5458.7 h -420.2 L 17772,2474 c 3.5,-40.2 43.8,-71.2 92.3,-71.2"
         style="fill:#ccccc9;fill-opacity:1;fill-rule:nonzero;stroke:none"
         id="path20" />
      <path
         d="m 12227.9,2402.8 v 0 c 44.7,0 83,26.5 91.1,63 l 1411.2,5475.8 H 13310 L 12136.4,2491.2 c -8.5,-46.5 34.8,-88.4 91.5,-88.4"
         style="fill:#ccccc9;fill-opacity:1;fill-rule:nonzero;stroke:none"
         id="path22" />
      <path
         d="m 15020,2402.8 h 2.3 c 48.5,0 88.8,31.1 92.3,71.3 l 547.4,5467.5 h -420.3 l -314.2,-5458.9 c -2.2,-43.6 39.9,-79.9 92.5,-79.9"
         style="fill:#ccccc9;fill-opacity:1;fill-rule:nonzero;stroke:none"
         id="path24" />
      <path
         d="M 12400.4,6827.4 H 20435 c 147.1,0 267.5,120.3 267.5,267.4 v 0 c 0,147.1 -120.4,267.5 -267.5,267.5 h -8034.6 c -147.1,0 -267.5,-120.4 -267.5,-267.5 v 0 c 0,-147.1 120.4,-267.4 267.5,-267.4"
         style="fill:#c59261;fill-opacity:1;fill-rule:nonzero;stroke:none"
         id="path26" />
      <path
         d="m 13483.8,11551.5 h -976.2 c -385.8,0 -701.4,-315.7 -701.4,-701.4 V 7906.7 c 0,-385.8 315.6,-701.4 701.4,-701.4 h 976.2 c 385.8,0 701.4,315.6 701.4,701.4 v 2943.4 c 0,385.7 -315.6,701.4 -701.4,701.4"
         style="fill:#cc9334;fill-opacity:1;fill-rule:nonzero;stroke:none"
         id="path28" />
      <path
         d="m 20283.3,11551.5 h -976.2 c -385.8,0 -701.4,-315.7 -701.4,-701.4 V 7906.7 c 0,-385.8 315.6,-701.4 701.4,-701.4 h 976.2 c 385.8,0 701.4,315.6 701.4,701.4 v 2943.4 c 0,385.7 -315.6,701.4 -701.4,701.4"
         style="fill:#cc9334;fill-opacity:1;fill-rule:nonzero;stroke:none"
         id="path30" />
      <path
         d="m 20618.5,8222.5 h -8401.6 c -281.9,0 -512.6,-230.7 -512.6,-512.7 v 0 c 0,-282 230.7,-512.7 512.6,-512.7 h 8401.6 c 281.9,0 512.6,230.7 512.6,512.7 v 0 c 0,282 -230.7,512.7 -512.6,512.7"
         style="fill:#efe8dc;fill-opacity:1;fill-rule:nonzero;stroke:none"
         id="path32" />
      <path
         d="m 18742.4,8766.5 c 29.6,87.7 32.8,184.5 35.3,291.7 6,255.4 -573.1,2252 -640.4,2890.7 -905.5,-29.4 -3383.9,0 -3383.9,0 0,0 -1399.3,-3182.4 -229.1,-3182.4 1170.1,0 4218.1,0 4218.1,0"
         style="fill:#32708c;fill-opacity:1;fill-rule:nonzero;stroke:none"
         id="path34" />
      <path
         d="m 17423.5,9169.2 -1768.1,-4.6 c 0,0 -126.2,653.3 -474.5,835 -348.2,181.7 -679.4,196.3 -1029.9,152.8 -159.6,-721.5 -161.3,-1385.9 373.3,-1385.9 1170.1,0 4218.1,0 4218.1,0 29.6,87.7 32.8,184.5 35.3,291.7 2.7,112.6 -108.5,563.7 -239.3,1087.7 -208,-16.9 -427.2,-49.3 -593,-167.3 -245.2,-174.6 -406.3,-410 -521.9,-809.4"
         style="fill:#265166;fill-opacity:1;fill-rule:nonzero;stroke:none"
         id="path36" />
      <path
         d="m 18960.5,6722.1 c -64.6,-1295.2 -98.3,-3179.4 -123.8,-3408.9 -32.5,-293.6 -787.5,92.9 -787.5,92.9 0,0 -223.7,1630.7 -349,3295.4 420.2,2.5 840.1,18.6 1260.3,20.6"
         style="fill:#ed847c;fill-opacity:1;fill-rule:nonzero;stroke:none"
         id="path38" />
      <path
         d="m 17867.4,3640.6 h 1068.8 l 46.5,-400.8 c 0,0 395,-495.1 286.6,-732.5 -108.5,-237.5 -1231.5,-219.4 -1324.5,-57.2 -92.9,162.2 -77.4,1190.5 -77.4,1190.5"
         style="fill:#b1b1b0;fill-opacity:1;fill-rule:nonzero;stroke:none"
         id="path40" />
      <path
         d="m 17906.8,2858.8 c 0,0 423.4,871.5 1279.2,224.7 l 207.2,-469.2 c 0,0 521.4,-232.2 521.4,-888.7 h -2184.1 c 0,0 0,1009 0,1203.2 0,194.3 104.9,459.6 135.9,374.3 44.4,-122.2 40.4,-444.3 40.4,-444.3"
         style="fill:#2b2827;fill-opacity:1;fill-rule:nonzero;stroke:none"
         id="path42" />
      <path
         d="m 17471.5,8759.2 c 0,-1077.7 117.6,-4995.4 155.9,-5265 0,0 1225.7,-78.8 1536.9,86.9 108,124.4 332.2,4186.6 332.8,5365.9 0.7,1179.4 -2025.6,1326.2 -2025.6,-187.8"
         style="fill:#32708c;fill-opacity:1;fill-rule:nonzero;stroke:none"
         id="path44" />
      <path
         d="m 14352.7,6537.2 c 64.6,-1295.2 98.4,-3179.5 123.8,-3409 32.5,-293.5 787.5,93 787.5,93 0,0 119.9,1836.2 245.1,3500.9 l -1156.4,-184.9"
         style="fill:#ed847c;fill-opacity:1;fill-rule:nonzero;stroke:none"
         id="path46" />
      <path
         d="M 15385.9,3595.4 H 14317 l -46.4,-400.9 c 0,0 -395.1,-495.1 -286.6,-732.5 108.4,-237.4 1231.5,-219.3 1324.4,-57.1 93,162.2 77.5,1190.5 77.5,1190.5"
         style="fill:#b1b1b0;fill-opacity:1;fill-rule:nonzero;stroke:none"
         id="path48" />
      <path
         d="m 15346.4,2813.5 c 0,0 -423.4,871.6 -1279.2,224.8 L 13860,2569.1 c 0,0 -521.4,-232.2 -521.4,-888.7 h 2184.1 c 0,0 0,1009 0,1203.2 0,194.3 -104.9,459.6 -135.9,374.3 -44.3,-122.2 -40.4,-444.4 -40.4,-444.4"
         style="fill:#2b2827;fill-opacity:1;fill-rule:nonzero;stroke:none"
         id="path50" />
      <path
         d="m 15509.1,9279.9 c 0,0 242.8,-5501.1 232.1,-5765.3 0,0 -1302.1,-46.9 -1614.6,15.6 33.2,267.5 -628.8,5533 -628.8,5764.8 0,1036.7 1902.7,1112.2 2011.3,-15.1"
         style="fill:#32708c;fill-opacity:1;fill-rule:nonzero;stroke:none"
         id="path52" />
      <path
         d="m 14091.3,16979.8 c 0,0 -392.4,261.7 -773.7,-270.7 -381.4,-532.4 -1662.7,-3044.4 -1970.4,-3729 -307.7,-684.6 1122,-880.4 1441.4,-333.3 319.4,547.1 1771,3338.7 1771,3338.7 0,0 -49.9,691 -468.3,994.3"
         style="fill:#efefee;fill-opacity:1;fill-rule:nonzero;stroke:none"
         id="path54" />
      <path
         d="m 18089.5,16970.3 c 0,0 392.4,261.7 773.8,-270.6 381.4,-532.4 1662.6,-3044.4 1970.4,-3729 307.7,-684.7 -1122.1,-880.4 -1441.5,-333.3 -319.3,547 -1770.9,3338.7 -1770.9,3338.7 0,0 49.8,690.9 468.2,994.2"
         style="fill:#efefee;fill-opacity:1;fill-rule:nonzero;stroke:none"
         id="path56" />
      <path
         d="m 16968.8,17170.6 -240,1791.4 -1259.4,-15.9 -194.5,-1797 c -178.2,-47.2 -290.2,-123.2 -288.7,-245.9 0.6,-42.8 45.5,-227.3 600.8,-803.5 222.7,-231 446.8,-390.2 554.5,-489.4 105,101.9 325.1,266.7 541.8,503.3 540.6,590.1 580.8,775.6 580.3,818.5 -1.6,122.6 -115.5,195.8 -294.8,238.5"
         style="fill:#eba88c;fill-opacity:1;fill-rule:nonzero;stroke:none"
         id="path58" />
      <path
         d="m 14246.6,10271.5 c 0,0 1702.4,-155.9 2264.3,-126.6 561.9,29.3 2169.6,182.7 2169.6,182.7 16.8,82.7 -32.6,6303 -107.5,6650 0,0 -1090.3,512.1 -1642.8,660.9 l 113,-724.8 c -82.5,-516.6 -902.9,-414.4 -902.9,-414.4 0,0 -726.4,-158.9 -870.3,352.6 l 31.7,701.6 c -534,-205.5 -1693.7,-605.6 -1693.7,-605.6 -35.8,-352.4 613.4,-6596 638.6,-6676.4"
         style="fill:#efefee;fill-opacity:1;fill-rule:nonzero;stroke:none"
         id="path60" />
      <path
         d="m 14148.9,12484.4 c -66.9,232.8 -133.2,2007.4 -200.4,2721.6 -70.1,29.4 -141.8,48.7 -214.3,64 181.7,-1964.2 495.1,-4943.1 512.4,-4998.5 0,0 738,-67.6 1402.5,-105.4 -108.2,267.9 -1433.2,2085.4 -1500.2,2318.3"
         style="fill:#d4d8e0;fill-opacity:1;fill-rule:nonzero;stroke:none"
         id="path62" />
      <path
         d="m 18536.1,15113.1 c 0,0 27.8,-2198 35.9,-2836 -214.2,-462.8 -1209.1,-1861.8 -1310.1,-2076.9 657.8,54.8 1418.6,127.4 1418.6,127.4 11.9,58.4 -9.4,3182.7 -49.2,5132.5 -103,-122.9 -95.2,-347 -95.2,-347"
         style="fill:#d4d8e0;fill-opacity:1;fill-rule:nonzero;stroke:none"
         id="path64" />
      <path
         d="m 16392,15596.8 236.8,523.2 -234.9,402.2 -253.6,-22.9 -254,16.5 -224.7,-408 250,-517.1 -420.8,-4537.1 728.6,-801.9 708.1,820.1 -535.5,4525"
         style="fill:#dd3a28;fill-opacity:1;fill-rule:nonzero;stroke:none"
         id="path66" />
      <path
         d="m 16140.3,16501.2 c 0,0 291.2,169.8 430.8,344.9 149.4,187.3 324.8,917.9 324.8,917.9 0,0 286.1,-29.4 313.8,-276 30,-266.8 -283.1,-1864.2 -283.1,-1864.2 l -277.5,569.4 -508.8,308"
         style="fill:#f7f7f7;fill-opacity:1;fill-rule:nonzero;stroke:none"
         id="path68" />
      <path
         d="m 16140.3,16501.2 c 0,0 -295.4,162.3 -439.4,333.8 -154,183.5 -370,872.2 -370,872.2 0,0 -263.2,0.6 -284.6,-246.5 -23.2,-267.5 330.2,-1856.5 330.2,-1856.5 l 268,581.5 495.8,315.5"
         style="fill:#f7f7f7;fill-opacity:1;fill-rule:nonzero;stroke:none"
         id="path70" />
      <path
         d="m 15590.9,18435.5 c -87.7,63.5 -176.4,127.9 -246.9,221.4 -70.6,93.6 -122.7,219.5 -124.6,362.3 -1.8,142.8 54.5,301.6 151,375.9 96.5,74.3 210.4,23.9 262.5,-91.2 25.1,-55.3 12.1,-907.5 -42,-868.4"
         style="fill:#fab59c;fill-opacity:1;fill-rule:nonzero;stroke:none"
         id="path72" />
      <path
         d="m 17126.8,21194.6 c 23.7,-3.4 246.5,-46.7 269.8,-52.4 711.9,-174.4 1366.5,-427.2 1042.6,-1532.9 0,0 -363.7,-1270.9 -475.1,-1509 -56.5,-120.7 -163.7,-224.5 -257.9,-315.9 -143.5,-139 -302.6,-264.3 -475.1,-365.6 -211.4,-124.1 -453.5,-219.7 -698.5,-172.1 -227.4,44.2 -385.7,143 -532,298.2 -145.5,154.5 -262.1,336.4 -357.9,525.2 -73.1,143.9 -143.7,299.4 -173.7,459.1 -3.5,19 -6.5,38.1 -7.6,57.4 -14.1,262.5 124.6,1577.1 124.6,1577.1 113.8,1146.5 815.4,1135.8 1540.8,1030.9"
         style="fill:#fab59c;fill-opacity:1;fill-rule:nonzero;stroke:none"
         id="path74" />
      <path
         d="m 16511.9,17309.5 c 529.1,-80.1 1056,329.6 1302.6,781 86.5,153.4 478.1,1229.5 392.7,1623.4 -54.6,251.9 -136.8,340.5 -1130.1,629.7 -819.5,238.5 -1303.4,-91.4 -1491.3,-181.7 0.1,1.1 0.2,1.8 0.2,1.8 113.8,1146.5 815.4,1135.8 1540.8,1030.9 23.7,-3.4 246.5,-46.7 269.8,-52.4 711.9,-174.4 1366.5,-427.2 1042.6,-1532.9 0,0 -363.7,-1270.9 -475.1,-1509 -56.5,-120.7 -163.7,-224.5 -257.9,-315.9 -143.5,-139 -302.6,-264.3 -475.1,-365.6 -211.4,-124.1 -453.5,-219.7 -698.5,-172.1 -227.4,44.2 -385.7,143 -532,298.2 -64.3,68.3 -123,142 -176.8,219.4 290.9,-326.3 609.4,-450.9 688.1,-454.8"
         style="fill:#ed8f6b;fill-opacity:1;fill-rule:nonzero;stroke:none"
         id="path76" />
      <path
         d="m 17308,18634.3 c 361.7,-135.1 404.5,-843.8 398.2,-849.9 -143.5,-139 -302.6,-264.3 -475.1,-365.6 -211.4,-124.1 -472.3,-270.2 -717.4,-222.6 -227.4,44.2 -385.7,143 -531.9,298.2 -145.6,154.5 -243.3,386.9 -339.1,575.7 -2,3.9 -3.9,7.9 -5.9,11.8 0,0 286.7,395.4 423.4,530.6 315.3,299.7 855.5,168.3 1247.8,21.8"
         style="fill:#332f40;fill-opacity:1;fill-rule:nonzero;stroke:none"
         id="path78" />
      <path
         d="m 17226.5,19180.3 c 0,0 82.4,-503.3 42.4,-583.7 -68.8,-138.2 -298.5,-57 -298.5,-57 0,0 168.7,33.7 183.7,137.9 15,104.3 72.4,502.8 72.4,502.8"
         style="fill:#e1503f;fill-opacity:1;fill-rule:nonzero;stroke:none"
         id="path80" />
      <path
         d="m 18036.4,19219.7 c -1.6,3.2 -3.3,6.1 -5.1,9.1 -97,162.6 -237.7,252 -407.1,255.4 -14.7,0.3 -30.5,-0.4 -48.1,-15.7 -33.5,-29.2 -49.4,-68.9 -66.6,-128.3 208,31.2 388.7,-33.5 525.4,-188.9 11.8,17.9 10.4,19.9 9.6,37.8 -0.5,13 -3.9,22.4 -8.1,30.6"
         style="fill:#332f40;fill-opacity:1;fill-rule:nonzero;stroke:none"
         id="path82" />
      <path
         d="m 16281.3,19568.7 c 2.7,2.4 5.4,4.5 8.1,6.6 150.2,115.4 313.9,146.5 472.7,87.1 13.8,-5.1 28.2,-11.6 38.9,-32.3 20.3,-39.4 20.5,-82.3 14.6,-143.8 -181.9,105.8 -373.7,112.3 -558.1,18.3 -4.4,21 -2.4,22.3 5,38.7 5.3,11.8 11.9,19.4 18.8,25.4"
         style="fill:#332f40;fill-opacity:1;fill-rule:nonzero;stroke:none"
         id="path84" />
      <path
         d="m 17556.9,19060.6 c 16.4,84.7 90.9,141.5 166.2,126.8 75.4,-14.6 123.1,-95.1 106.7,-179.8 -1.4,-6.8 -6.5,-33 -7.8,-39.7 l -23.6,-121.8 c -16.4,-84.4 -89.2,-100.5 -158.5,-87 -69.4,13.4 -130.8,55.6 -114.4,140 l 23.7,121.8 c 1.3,6.7 6.3,32.9 7.7,39.7"
         style="fill:#332f40;fill-opacity:1;fill-rule:nonzero;stroke:none"
         id="path86" />
      <path
         d="m 17607.5,19057.6 c -1.4,-6.8 3.1,-13.4 9.9,-14.7 6.8,-1.3 13.4,3.1 14.7,9.9 1.3,6.8 -3.1,13.4 -9.9,14.7 -6.8,1.4 -13.4,-3.1 -14.7,-9.9"
         style="fill:#ffffff;fill-opacity:1;fill-rule:nonzero;stroke:none"
         id="path88" />
      <path
         d="m 16373.5,19300.1 c 16.5,84.6 90.9,141.4 166.2,126.8 75.4,-14.7 123.1,-95.2 106.7,-179.9 -1.3,-6.7 -6.4,-33 -7.7,-39.7 l -23.7,-121.8 c -16.4,-84.4 -89.1,-100.5 -158.5,-87 -69.4,13.5 -130.8,55.7 -114.4,140 l 23.7,121.8 c 1.3,6.8 6.4,33 7.7,39.8"
         style="fill:#332f40;fill-opacity:1;fill-rule:nonzero;stroke:none"
         id="path90" />
      <path
         d="m 16424.1,19297.1 c -1.3,-6.8 3.1,-13.4 9.9,-14.8 6.8,-1.3 13.4,3.2 14.7,10 1.3,6.8 -3.1,13.4 -9.9,14.7 -6.8,1.3 -13.4,-3.1 -14.7,-9.9"
         style="fill:#ffffff;fill-opacity:1;fill-rule:nonzero;stroke:none"
         id="path92" />
      <path
         d="m 17483.8,18378.1 c 0,0 -316.6,40.9 -521.7,90.7 -205.2,49.8 -600.4,127.3 -600.4,127.3 -36.6,7.1 61.2,-571.5 450.2,-651.5 387.2,-79.7 671.9,433.5 671.9,433.5"
         style="fill:#ffffff;fill-opacity:1;fill-rule:nonzero;stroke:none"
         id="path94" />
      <path
         d="m 18159.8,21128.4 c 500.2,-287 708.6,-664.2 653.6,-1211.3 -90.9,-209.5 -759.6,-1650.7 -796.4,-1612.5 -36.9,38.2 125,339.8 175.3,513.6 145.7,503.7 237.7,879.7 289.2,1401.7 -253.4,-212.8 -694.1,-33.9 -1007.5,72.2 -313.5,106 -608.9,277.5 -937.2,318.6 -240.6,30.1 -514,-39.6 -677.2,-204.6 -55,-247.4 -218.9,-856.9 -243.7,-1018.8 -23.9,-156.4 -98.4,-571.3 -148.9,-570.4 -50.6,0.9 65,1181.1 25.9,1811.3 -7.5,120.8 302.4,619.5 447,650.3 144.5,30.7 1385.2,345.2 2219.9,-150.1"
         style="fill:#332f40;fill-opacity:1;fill-rule:nonzero;stroke:none"
         id="path96" />
      <path
         d="m 17880,12519.1 c 0,0 -524.9,-141.3 -700.7,-374.4 -212.7,-282.3 -281.2,-737.3 -299.2,-795.2 -17.9,-57.8 82.8,-144.3 154.9,-48 72.2,96.2 280.1,609.6 337.5,666 79.8,78.6 529.5,265 529.5,265 l -22,286.6"
         style="fill:#fab59c;fill-opacity:1;fill-rule:nonzero;stroke:none"
         id="path98" />
      <path
         d="m 17972.1,12387.2 c 0,0 -525,-141.4 -700.7,-374.5 -212.7,-282.2 -281.2,-737.2 -299.2,-795.1 -18,-57.8 82.7,-144.3 154.9,-48.1 72.1,96.2 280,609.6 337.4,666.1 79.9,78.6 529.5,264.9 529.5,264.9 l -21.9,286.7"
         style="fill:#fab59c;fill-opacity:1;fill-rule:nonzero;stroke:none"
         id="path100" />
      <path
         d="m 18042.9,12210 c 0,0 -495.9,-133.5 -661.9,-353.7 -201,-266.6 -265.6,-696.4 -282.6,-751.1 -17,-54.6 78.1,-136.3 146.3,-45.4 68.2,90.9 264.5,575.8 318.7,629.2 75.5,74.2 500.2,250.2 500.2,250.2 l -20.7,270.8"
         style="fill:#fab59c;fill-opacity:1;fill-rule:nonzero;stroke:none"
         id="path102" />
      <path
         d="m 18173.3,12185.3 c 0,0 -476.2,-128.2 -635.6,-339.6 -192.9,-256 -255,-668.7 -271.3,-721.2 -16.3,-52.5 75,-130.9 140.5,-43.6 65.4,87.3 254,552.9 306,604.1 72.5,71.3 480.3,240.3 480.3,240.3 l -19.9,260"
         style="fill:#fab59c;fill-opacity:1;fill-rule:nonzero;stroke:none"
         id="path104" />
      <path
         d="m 17999.4,11846.9 c 0,0 262.5,-102.9 345.2,163.4 82.7,266.4 -105.8,515.8 -322.5,583.1 -216.7,67.3 -638.1,-77.1 -776.5,-95.4 -138.4,-18.3 -60.8,-172 59.9,-165.1 120.7,6.9 326.5,4.7 326.5,4.7 l 367.4,-490.7"
         style="fill:#fab59c;fill-opacity:1;fill-rule:nonzero;stroke:none"
         id="path106" />
      <path
         d="m 20435.5,12021.4 -2349.3,-328.4 -239.3,991.6 c 0,0 1021.1,371.8 1939.5,498.9 768.9,106.3 993.4,34.5 1092.2,-317.5 99.3,-354.1 -77.4,-781.7 -443.1,-844.6"
         style="fill:#efefee;fill-opacity:1;fill-rule:nonzero;stroke:none"
         id="path108" />
      <path
         d="m 14300.8,12528.6 c 0,0 525,-141.4 700.7,-374.5 212.8,-282.2 281.3,-737.2 299.2,-795.1 18,-57.8 -82.7,-144.3 -154.9,-48.1 -72.1,96.2 -280,609.6 -337.4,666.1 -79.9,78.6 -529.5,264.9 -529.5,264.9 l 21.9,286.7"
         style="fill:#fab59c;fill-opacity:1;fill-rule:nonzero;stroke:none"
         id="path110" />
      <path
         d="m 14208.8,12396.6 c 0,0 524.9,-141.3 700.7,-374.4 212.7,-282.2 281.2,-737.3 299.2,-795.1 17.9,-57.9 -82.8,-144.4 -154.9,-48.1 -72.2,96.2 -280.1,609.6 -337.5,666 -79.8,78.6 -529.5,265 -529.5,265 l 22,286.6"
         style="fill:#fab59c;fill-opacity:1;fill-rule:nonzero;stroke:none"
         id="path112" />
      <path
         d="m 14138,12219.5 c 0,0 495.8,-133.6 661.8,-353.8 201,-266.5 265.7,-696.4 282.7,-751 16.9,-54.7 -78.2,-136.4 -146.3,-45.5 -68.2,91 -264.6,575.9 -318.8,629.2 -75.4,74.2 -500.1,250.3 -500.1,250.3 l 20.7,270.8"
         style="fill:#fab59c;fill-opacity:1;fill-rule:nonzero;stroke:none"
         id="path114" />
      <path
         d="m 14007.6,12194.8 c 0,0 476.1,-128.2 635.5,-339.7 193,-255.9 255.1,-668.7 271.4,-721.1 16.3,-52.5 -75,-130.9 -140.5,-43.7 -65.4,87.3 -254,553 -306.1,604.2 -72.4,71.2 -480.2,240.3 -480.2,240.3 l 19.9,260"
         style="fill:#fab59c;fill-opacity:1;fill-rule:nonzero;stroke:none"
         id="path116" />
      <path
         d="m 14181.5,11856.3 c 0,0 -262.5,-102.9 -345.2,163.5 -82.7,266.3 105.7,515.8 322.4,583.1 216.8,67.3 638.1,-77.1 776.6,-95.4 138.4,-18.3 60.8,-172.1 -59.9,-165.1 -120.8,6.9 -326.5,4.6 -326.5,4.6 l -367.4,-490.7"
         style="fill:#fab59c;fill-opacity:1;fill-rule:nonzero;stroke:none"
         id="path118" />
      <path
         d="m 11745.4,12030.9 2349.3,-328.5 239.2,991.6 c 0,0 -1021,371.9 -1939.4,498.9 -769,106.4 -993.4,34.6 -1092.2,-317.5 -99.4,-354 77.4,-781.6 443.1,-844.5"
         style="fill:#efefee;fill-opacity:1;fill-rule:nonzero;stroke:none"
         id="path120" />
      <path
         d="m 24499.4,17099.1 c 0,0 412.3,-229.2 113.4,-811.9 -298.9,-582.7 -1827.3,-2760.3 -2295.2,-3347.2 -467.9,-586.9 -1415.1,483.8 -1074.8,1018.1 340.3,534.3 1688.3,2402.5 2099.5,2939.9 234.1,305.9 696,434.3 1157.1,201.1"
         style="fill:#efefee;fill-opacity:1;fill-rule:nonzero;stroke:none"
         id="path122" />
      <path
         d="m 7568.44,17091.3 c 0,0 -412.28,-229.2 -113.39,-811.9 298.89,-582.7 1827.28,-2760.3 2295.22,-3347.2 467.93,-586.9 1415.13,483.8 1074.83,1018.1 -340.3,534.3 -1688.34,2402.5 -2099.56,2939.9 -234.05,305.9 -695.96,434.3 -1157.1,201.1"
         style="fill:#efefee;fill-opacity:1;fill-rule:nonzero;stroke:none"
         id="path124" />
      <path
         d="m 1595.24,2657 v 0 c -56.69,0 -100.05,41.9 -91.5,88.4 l 1173.63,5450.4 h 420.2 L 1686.28,2719.9 c -8.04,-36.4 -46.35,-62.9 -91.04,-62.9"
         style="fill:#ccccc9;fill-opacity:1;fill-rule:nonzero;stroke:none"
         id="path126" />
      <path
         d="m 4338.45,2657 h -2.27 c -52.68,0 -94.73,36.4 -92.47,80.1 l 330.01,5458.7 h 420.21 L 4430.76,2728.2 c -3.53,-40.2 -43.81,-71.2 -92.31,-71.2"
         style="fill:#ccccc9;fill-opacity:1;fill-rule:nonzero;stroke:none"
         id="path128" />
      <path
         d="m 9974.82,2657 v 0 c -44.69,0 -83,26.5 -91.05,62.9 L 8472.49,8195.8 h 420.2 L 10066.3,2745.4 c 8.6,-46.5 -34.8,-88.4 -91.48,-88.4"
         style="fill:#ccccc9;fill-opacity:1;fill-rule:nonzero;stroke:none"
         id="path130" />
      <path
         d="m 7182.78,2657 h -2.3 c -48.58,0 -88.88,31.1 -92.33,71.3 l -547.37,5467.5 h 420.21 l 314.26,-5458.9 c 2.15,-43.6 -39.87,-79.9 -92.47,-79.9"
         style="fill:#ccccc9;fill-opacity:1;fill-rule:nonzero;stroke:none"
         id="path132" />
      <path
         d="M 9802.36,7081.6 H 1767.7 c -147.1,0 -267.46,120.3 -267.46,267.4 v 0 c 0,147.1 120.36,267.5 267.46,267.5 h 8034.66 c 147.1,0 267.44,-120.4 267.44,-267.5 v 0 c 0,-147.1 -120.34,-267.4 -267.44,-267.4"
         style="fill:#c59261;fill-opacity:1;fill-rule:nonzero;stroke:none"
         id="path134" />
      <path
         d="m 3188.21,17133.8 h 3592.21 c 903.78,0 1643.23,-739.5 1643.23,-1643.2 V 9197.8 C 8423.65,8294 7684.2,7554.5 6780.42,7554.5 H 3188.21 c -903.78,0 -1643.23,739.5 -1643.23,1643.3 v 6292.8 c 0,903.7 739.45,1643.2 1643.23,1643.2"
         style="fill:#b16e2f;fill-opacity:1;fill-rule:nonzero;stroke:none"
         id="path136" />
      <path
         d="m 4472.86,16783.3 h 2524.81 c 784.29,0 1425.98,-641.7 1425.98,-1426 V 8980.5 c 0,-784.3 -641.69,-1426 -1425.98,-1426 H 4472.86 c -784.29,0 -1425.98,641.7 -1425.98,1426 v 6376.8 c 0,784.3 641.69,1426 1425.98,1426"
         style="fill:#854f23;fill-opacity:1;fill-rule:nonzero;stroke:none"
         id="path138" />
      <path
         d="M 7780.56,11824.5 H 9944.6 c 498.8,0 907,-408.1 907,-906.9 V 8385.3 c 0,-498.8 -408.2,-907 -907,-907 H 7780.56 c -498.84,0 -906.98,408.2 -906.98,907 v 2532.3 c 0,498.8 408.14,906.9 906.98,906.9"
         style="fill:#cc9334;fill-opacity:1;fill-rule:nonzero;stroke:none"
         id="path140" />
      <path
         d="m 2071.27,8476.6 h 8401.53 c 282,0 512.7,-230.6 512.7,-512.6 v 0 c 0,-282 -230.7,-512.7 -512.7,-512.7 H 2071.27 c -281.96,0 -512.66,230.7 -512.66,512.7 v 0 c 0,282 230.7,512.6 512.66,512.6"
         style="fill:#efe8dc;fill-opacity:1;fill-rule:nonzero;stroke:none"
         id="path142" />
      <path
         d="m 4641.37,8563.5 c 0,0 -752.6,17.6 -752.6,875 0,857.3 752.6,1932.6 752.6,1932.6 h 3629.69 c 0,0 663.25,-1060.4 840.41,-1508.4 177.16,-448 362.4,-1299.2 -774.47,-1299.2 -1136.87,0 -3695.63,0 -3695.63,0"
         style="fill:#694223;fill-opacity:1;fill-rule:nonzero;stroke:none"
         id="path144" />
      <path
         d="m 9863.2,3326.7 c 0,0 -103.46,370.4 -219.66,615.5 H 9007.22 C 8782.52,3522.4 8835.06,2657.8 8816.37,2184.8 l 2256.13,16.7 c 230,223.7 -1209.3,1125.2 -1209.3,1125.2"
         style="fill:#b1b1b0;fill-opacity:1;fill-rule:nonzero;stroke:none"
         id="path146" />
      <path
         d="m 8928.15,2684.8 c -46.61,47.6 -27.19,497.5 -93.77,498 -69.57,0.5 -89.04,-123.1 -89.04,-123.1 -23.42,-65.5 0,-1355.9 0,-1355.9 825.27,0 1857.56,0 2682.86,0 417.9,0 373.2,531.6 351.9,610.1 -652.9,316.9 -1105.8,484.7 -1699.1,902.8 -169.08,0 -392.86,26.8 -426.29,-109.6 -33.43,-136.3 -32.14,-280.1 -73.41,-414.3 -14.41,-46.8 -620.25,-41.5 -653.15,-8"
         style="fill:#2b2827;fill-opacity:1;fill-rule:nonzero;stroke:none"
         id="path148" />
      <path
         d="m 5362.71,10286.5 c 1313.76,79.8 2565.23,-12.7 3881.35,-0.1 397.16,3.8 714.9,-66.7 895.34,-228.8 180.4,-162.1 243,-1102.5 -357,-1560.6 H 5271.27 l 91.44,1789.5"
         style="fill:#694223;fill-opacity:1;fill-rule:nonzero;stroke:none"
         id="path150" />
      <path
         d="m 8585.64,9543.9 c -358.1,-127.1 -254.14,-589.1 -277.24,-912.6 -473.62,46.2 -1513.29,0 -1513.29,0 0,0 -100.06,750.9 -169.37,935.7 -57.76,184.8 -116.3,349.9 -284,309.1 -150.17,-392.8 -78.02,-852 -378.37,-1152.4 -221.36,-18 -460.38,1 -676.99,68.9 L 5271.27,8497 H 9782.4 c 70.41,53.7 131.59,114.2 184.63,179.2 -41.77,182.6 -121.07,353.4 -260.85,498 -288.8,311.9 -727.77,519.9 -1120.54,369.7"
         style="fill:#4c311d;fill-opacity:1;fill-rule:nonzero;stroke:none"
         id="path152" />
      <path
         d="m 5284.74,1829.5 c -103.96,230.6 -196.61,446.6 -276.94,691 l 37.71,1401.4 c 1.37,102.2 97.4,184 197.04,182.3 l 621.95,-7.7 c 88.82,-1.5 352.4,-1199.6 352.4,-1199.6 l 534.68,-792.4 c 50.61,-66.3 97.99,-194.5 124.63,-275 H 5284.74"
         style="fill:#b1b1b0;fill-opacity:1;fill-rule:nonzero;stroke:none"
         id="path154" />
      <path
         d="m 6818.54,2586.6 -296.08,251.7 -290.11,316.1 c -347.97,82.2 -834.55,-164.8 -834.55,-164.8 l -65.3,-302.8 c -21.42,3.8 -192.85,23.6 -212.44,33.1 -143.4,70.1 -70.55,641.8 -99.15,641.9 -6.74,0 -97.56,-15.3 -117.12,-154 -63.41,-449.7 -59.32,-1479.1 -59.32,-1479.1 h 2151.24 c 1.15,8.8 -104.95,763.3 -177.17,857.9"
         style="fill:#2b2827;fill-opacity:1;fill-rule:nonzero;stroke:none"
         id="path156" />
      <path
         d="m 10067.4,3326.7 c 0,0 542.9,4527.2 453.8,5968.2 -94.2,1522.1 -2081.18,1185.7 -2081.18,48.7 0,-1185.8 270.75,-6016.9 270.75,-6016.9 h 1356.63"
         style="fill:#694223;fill-opacity:1;fill-rule:nonzero;stroke:none"
         id="path158" />
      <path
         d="m 6364.97,3326.7 260.77,5895.9 c 0,1383 -1985.73,1627.1 -2091.93,285.2 C 4427.6,8166 4831.38,3326.7 4831.38,3326.7 h 1533.59"
         style="fill:#694223;fill-opacity:1;fill-rule:nonzero;stroke:none"
         id="path160" />
      <path
         d="m 7273.19,17420.9 -207.34,1712.2 H 5864.02 l -207.34,-1712.2 c -170.55,-42.9 -278.35,-114.1 -278.35,-231.2 0,-40.8 40.63,-217.4 563.49,-773.9 209.68,-223.1 421.61,-377.7 523.12,-473.6 101.51,95.9 313.43,250.5 523.12,473.6 522.86,556.5 563.49,733.1 563.49,773.9 0,117.1 -107.8,188.3 -278.36,231.2"
         style="fill:#eba88c;fill-opacity:1;fill-rule:nonzero;stroke:none"
         id="path162" />
      <path
         d="m 4426.85,10935.3 c 12.75,-162.8 139.44,-293.5 301.78,-311.2 470.94,-51.6 1657.71,-79 2087.5,-62.1 414.94,16.4 1233.06,23 1690.79,64.8 176.11,16.1 310.39,164.5 308.91,341.3 -11.07,1318.2 -93.5,5640.8 -157.53,5957 0,0 -767.47,481.9 -1339.63,643.8 l 107.86,-754.6 c -92.49,-535.8 -943.59,-418.8 -943.59,-418.8 0,0 -756.91,-155.5 -899.73,377.9 l 42.17,728.6 c -557.61,-206.5 -1401.02,-567 -1401.02,-567 -36.87,-322.3 103.76,-4740.2 202.49,-5999.7"
         style="fill:#efefee;fill-opacity:1;fill-rule:nonzero;stroke:none"
         id="path164" />
      <path
         d="m 8655.58,15460.2 c 0,-473.9 39.85,-960 39.85,-1440 -10,-790 24.44,-2701 -63.87,-3164.7 -20.64,-108.4 -495.98,-225.3 -565.98,-235.3 -35.84,-8.7 -71.64,-16.9 -107.42,-25.1 204.08,7.8 396.4,17.8 548.76,31.7 176.11,16.1 310.39,164.5 308.91,341.3 -7.58,902.6 -48.62,3213.8 -94.3,4683 -29.95,-61.6 -65.95,-123.3 -65.95,-190.9"
         style="fill:#d4d8e0;fill-opacity:1;fill-rule:nonzero;stroke:none"
         id="path166" />
      <path
         d="m 4720.57,11762.4 c 0,0 -304.99,2547.8 -394.99,3277.8 -6.24,56.1 -35.83,106.5 -78.46,153.4 41.12,-1480.5 118.49,-3477 179.73,-4258.3 12.75,-162.8 139.44,-293.5 301.78,-311.2 155.8,-17.1 389.95,-31.5 649.11,-42.6 113.91,-4.8 -657.17,1180.9 -657.17,1180.9"
         style="fill:#d4d8e0;fill-opacity:1;fill-rule:nonzero;stroke:none"
         id="path168" />
      <path
         d="m 6779.92,15475.4 265.81,519.6 -172.15,430.9 -390.64,-30.4 -263.78,20.5 -238.78,-421 320.79,-540.6 -131.34,-3946.2 716.72,-809.1 520.47,877.5 -627.1,3898.8"
         style="fill:#c09d2f;fill-opacity:1;fill-rule:nonzero;stroke:none"
         id="path170" />
      <path
         d="m 6482.94,16397.5 c 0,0 304.82,172.6 452.19,352.7 157.65,192.7 349.54,949.5 349.54,949.5 0,0 296.93,-34.3 322.46,-290.8 27.63,-277.6 -364.75,-1933.5 -364.75,-1933.5 l -170.66,624.4 -588.78,297.7"
         style="fill:#f7f7f7;fill-opacity:1;fill-rule:nonzero;stroke:none"
         id="path172" />
      <path
         d="m 6482.94,16397.5 c 0,0 -304.81,172.6 -452.18,352.7 -157.65,192.7 -372.98,911.2 -372.98,911.2 0,0 -273.49,4 -299.02,-252.5 -27.63,-277.6 318.67,-1933.5 318.67,-1933.5 l 393.34,718.1 412.17,204"
         style="fill:#f7f7f7;fill-opacity:1;fill-rule:nonzero;stroke:none"
         id="path174" />
      <path
         d="m 5795.02,18550.6 c -116.98,67.2 -235.28,135.3 -332.08,230.2 -96.79,94.8 -171.86,219.4 -183.19,356.4 -11.33,137.1 51.39,285.3 171.06,349.6 119.67,64.3 269.69,7.7 344.04,-106.4 35.75,-54.8 72.35,-871.2 0.17,-829.8"
         style="fill:#fab59c;fill-opacity:1;fill-rule:nonzero;stroke:none"
         id="path176" />
      <path
         d="m 7652.41,18204.6 c 134.73,6.6 271.09,13.5 400.44,53.9 129.35,40.4 252.87,117.1 325.32,234 72.46,116.9 84.05,277.5 6.75,389.2 -77.31,111.7 -236.64,129.6 -354.77,61.8 -56.8,-32.6 -460.87,-743 -377.74,-738.9"
         style="fill:#fab59c;fill-opacity:1;fill-rule:nonzero;stroke:none"
         id="path178" />
      <path
         d="m 7518.85,21102.4 c -21.95,5.5 -232.57,47.4 -254.94,50.7 -685.72,102.2 -1349.33,115.1 -1461.57,-968.8 0,0 -136.49,-1243 -124.2,-1491.2 6.24,-126 62.95,-255.3 112.75,-368.9 75.83,-173.2 170.36,-339.8 285.07,-490.2 140.63,-184.4 318.36,-354.7 549.99,-400.8 214.84,-42.7 388.88,-12.8 572.45,70.7 182.72,83.2 349.95,200.7 501.41,331.7 115.44,99.8 233.02,210.7 316.37,339.8 9.91,15.4 19.41,31 27.23,47.6 106.29,224.7 455.45,1425.3 455.45,1425.3 310.79,1044.6 -307.34,1286.4 -980.01,1454.1"
         style="fill:#fab59c;fill-opacity:1;fill-rule:nonzero;stroke:none"
         id="path180" />
      <path
         d="m 6666.55,17480.8 c -491.95,119.3 -806.58,666.6 -860.9,1150 -20.86,165.3 -2.18,476.4 58.5,622.7 97.66,235.5 370.35,491.9 767.99,625.9 208.37,70.3 137.42,368 293.71,371.6 214.47,5.1 608.1,-352.9 928.08,-196.4 33.53,16.3 232.42,-436.7 644.44,-407.9 0.29,1 0.49,1.6 0.49,1.6 310.79,1044.6 -307.34,1286.4 -980.01,1454.1 -21.95,5.5 -232.57,47.4 -254.94,50.7 -685.72,102.2 -1349.33,115.1 -1461.57,-968.8 0,0 -136.49,-1243 -124.2,-1491.2 6.24,-126 62.95,-255.3 112.75,-368.9 75.83,-173.2 170.36,-339.8 285.07,-490.2 140.63,-184.4 318.36,-354.7 549.99,-400.8 214.84,-42.7 388.88,-12.8 572.45,70.7 80.83,36.8 158.61,80.3 233.35,128.8 -371.46,-181.5 -694.91,-176.6 -765.2,-151.9"
         style="fill:#ed8f6b;fill-opacity:1;fill-rule:nonzero;stroke:none"
         id="path182" />
      <path
         d="m 7372.35,19301.3 c 0,0 71.59,-477.1 32.72,-552.7 -66.75,-129.8 -282.97,-50.1 -282.97,-50.1 0,0 159.91,29.7 175.43,128.1 15.52,98.5 74.82,474.7 74.82,474.7"
         style="fill:#e1503f;fill-opacity:1;fill-rule:nonzero;stroke:none"
         id="path184" />
      <path
         d="m 6400.15,19718.3 c 2.56,2.2 5.14,4.2 7.72,6.1 143.17,107.7 298.32,135.6 447.91,77.9 12.97,-4.9 26.55,-11.2 36.49,-30.9 18.84,-37.5 18.58,-78 12.38,-136.1 -171.01,101.7 -352.34,109.7 -527.61,22.6 -3.96,19.9 -2.05,21.2 5.07,36.6 5.12,11.1 11.47,18.2 18.04,23.8"
         style="fill:#3e2519;fill-opacity:1;fill-rule:nonzero;stroke:none"
         id="path186" />
      <path
         d="m 8120.07,19375.1 c -1.51,3 -3.12,5.8 -4.75,8.6 -90.2,154.8 -222.39,240.7 -382.65,245.5 -13.88,0.5 -28.85,-0.1 -45.63,-14.4 -31.91,-27.2 -47.38,-64.6 -64.2,-120.6 197.09,27.5 367.34,-35.5 495.1,-183.8 11.38,16.9 10.1,18.7 9.52,35.7 -0.41,12.3 -3.52,21.2 -7.39,29"
         style="fill:#3e2519;fill-opacity:1;fill-rule:nonzero;stroke:none"
         id="path188" />
      <path
         d="m 6763.07,19407.4 c 15.9,80 -28.93,156.4 -100.15,170.5 -71.22,14.2 -141.85,-39.2 -157.76,-119.2 -1.27,-6.4 -6.2,-31.2 -7.46,-37.6 l -22.88,-115.1 c -15.84,-79.7 42.07,-119.9 107.63,-132.9 65.56,-13 134.43,1.9 150.28,81.6 l 22.88,115.2 c 1.26,6.3 6.19,31.1 7.46,37.5"
         style="fill:#3e2519;fill-opacity:1;fill-rule:nonzero;stroke:none"
         id="path190" />
      <path
         d="m 6548.36,19273.3 c -1.28,-6.4 -7.53,-10.6 -13.95,-9.3 -6.43,1.3 -10.6,7.5 -9.33,13.9 1.28,6.5 7.53,10.7 13.96,9.4 6.42,-1.3 10.6,-7.6 9.32,-14"
         style="fill:#ffffff;fill-opacity:1;fill-rule:nonzero;stroke:none"
         id="path192" />
      <path
         d="m 7943.2,19172.9 c 15.91,80 -28.93,156.4 -100.15,170.5 -71.22,14.2 -141.85,-39.2 -157.76,-119.3 -1.27,-6.4 -6.19,-31.2 -7.46,-37.5 l -22.88,-115.2 c -15.84,-79.7 42.08,-119.8 107.63,-132.9 65.56,-13 134.44,2 150.28,81.7 l 22.88,115.1 c 1.26,6.4 6.19,31.1 7.46,37.6"
         style="fill:#3e2519;fill-opacity:1;fill-rule:nonzero;stroke:none"
         id="path194" />
      <path
         d="m 7724.83,19040.9 c -1.28,-6.4 -7.52,-10.6 -13.95,-9.3 -6.42,1.3 -10.6,7.5 -9.32,13.9 1.28,6.5 7.52,10.6 13.95,9.4 6.43,-1.3 10.6,-7.6 9.32,-14"
         style="fill:#ffffff;fill-opacity:1;fill-rule:nonzero;stroke:none"
         id="path196" />
      <path
         d="m 6602.09,18808.1 c 0,0 395.86,-122.4 591.49,-162.4 195.65,-40 433.41,-77.4 433.41,-77.4 0,0 -259.33,-490.1 -624.42,-401.9 -363.52,87.7 -423.23,647.4 -400.48,641.7"
         style="fill:#ffffff;fill-opacity:1;fill-rule:nonzero;stroke:none"
         id="path198" />
      <path
         d="m 6271.43,19852.9 c 174.76,8 293.5,27.7 397.64,134.1 139.61,142.7 99.13,332.4 249.56,342.5 238.69,16 617.12,-322.2 844.1,-249.5 48.07,15.4 91.8,42.1 128.08,76.5 27.93,-84.8 72.15,-173.4 131.86,-241.6 105.34,-120.2 239.39,-196.7 257.86,-426.8 7.96,-99.1 -171.44,-1087.1 -171.44,-1087.1 119.2,35.3 347.64,783.4 412.25,910.3 69.38,136.3 109.56,203.5 174.19,342.1 73.65,157.9 62.82,350.8 -23.04,503.5 29.99,78.3 53.68,158.7 66.29,241.8 26.83,176.9 -1.92,369.1 -113.44,511.6 -98.96,126.6 -270.95,202.5 -426.76,173.1 -183.81,293.3 -415.68,576.8 -751.95,625.5 -302.69,43.9 -590.84,-121.5 -892.18,-168.5 -176.47,-27.5 -357.66,-14.1 -534.81,-37.4 -177.15,-23.3 -360.81,-92.6 -456.81,-240.3 -48.45,-74.4 -62.8,-171.4 -43.84,-257.9 -55.72,-24.3 -104.95,-67.8 -132.25,-121.1 -60.3,-117.6 -41.7,-259.4 -9.35,-388.1 32.35,-128.7 299.3,-325.5 287.45,-457.1 -13.39,-148.7 -6.91,-1009.4 46.8,-1020 53.69,-10.7 309.7,856.8 309.7,856.8 25.73,-11 194.49,-24.9 250.09,-22.4"
         style="fill:#3e2519;fill-opacity:1;fill-rule:nonzero;stroke:none"
         id="path200" />
      <path
         d="m 1980.92,11830.9 h 2159.2 c 500.16,0 909.39,-409.2 909.39,-909.4 V 8360.7 c 0,-500.1 -409.23,-909.4 -909.39,-909.4 h -2159.2 c -500.17,0 -909.4,409.3 -909.4,909.4 v 2560.8 c 0,500.2 409.23,909.4 909.4,909.4"
         style="fill:#cc9334;fill-opacity:1;fill-rule:nonzero;stroke:none"
         id="path202" />
      <path
         d="m 4140.12,11830.9 h -2159.2 c -72.59,0 -143.23,-8.7 -211.01,-24.9 628.13,-61.3 1499.92,-133.2 2118.86,-293.8 721.45,-187.2 708.36,-397 896.85,-890.6 127.2,-333.1 200.93,-800.2 263.89,-1085.9 v 1385.8 c 0,500.2 -409.23,909.4 -909.39,909.4"
         style="fill:#966c2a;fill-opacity:1;fill-rule:nonzero;stroke:none"
         id="path204" />
      <path
         d="m 4516.04,16899.1 c 0,0 -392.42,261.7 -773.78,-270.7 -381.37,-532.4 -1662.61,-3044.4 -1970.35,-3729 -307.74,-684.6 1122.02,-880.4 1441.41,-333.3 319.39,547.1 1770.99,3338.7 1770.99,3338.7 0,0 -49.87,691 -468.27,994.3"
         style="fill:#efefee;fill-opacity:1;fill-rule:nonzero;stroke:none"
         id="path206" />
      <path
         d="m 4826.5,12299.9 c 0,0 459.44,-290.6 558.16,-565.4 119.51,-332.5 50.01,-787.4 50.01,-848 0,-60.6 -121.8,-113.3 -162.19,0 -40.38,113.3 -86.72,665.2 -124.79,736.1 -52.97,98.8 -427.12,410.1 -427.12,410.1 l 105.93,267.2"
         style="fill:#fab59c;fill-opacity:1;fill-rule:nonzero;stroke:none"
         id="path208" />
      <path
         d="m 4699.46,12201.2 c 0,0 459.44,-290.6 558.16,-565.4 119.5,-332.6 50,-787.5 50,-848 0,-60.6 -121.8,-113.3 -162.18,0 -40.39,113.3 -86.73,665.2 -124.8,736.1 -52.96,98.7 -427.12,410.1 -427.12,410.1 l 105.94,267.2"
         style="fill:#fab59c;fill-opacity:1;fill-rule:nonzero;stroke:none"
         id="path210" />
      <path
         d="m 4579.31,12053 c 0,0 433.99,-274.5 527.24,-534.1 112.89,-314.1 47.23,-743.8 47.23,-801.1 0,-57.2 -115.04,-107 -153.19,0 -38.15,107.1 -81.92,628.4 -117.88,695.4 -50.04,93.3 -403.47,387.3 -403.47,387.3 l 100.07,252.5"
         style="fill:#fab59c;fill-opacity:1;fill-rule:nonzero;stroke:none"
         id="path212" />
      <path
         d="m 4447.47,12068.1 c 0,0 416.71,-263.6 506.25,-512.8 108.39,-301.7 45.36,-714.3 45.36,-769.2 0,-55 -110.48,-102.8 -147.11,0 -36.62,102.7 -78.66,603.3 -113.19,667.7 -48.04,89.5 -387.4,371.9 -387.4,371.9 l 96.09,242.4"
         style="fill:#fab59c;fill-opacity:1;fill-rule:nonzero;stroke:none"
         id="path214" />
      <path
         d="m 4513.18,11693.3 c 0,0 -281.21,-20.4 -281.21,258.4 0,278.9 253.93,461.3 480.86,461.3 226.93,0 586.53,-262.8 713.31,-321.3 126.77,-58.5 7.1,-182.4 -106.16,-140 -113.26,42.4 -310.41,101.3 -310.41,101.3 l -496.39,-359.7"
         style="fill:#fab59c;fill-opacity:1;fill-rule:nonzero;stroke:none"
         id="path216" />
      <path
         d="m 2170.07,11950.2 2349.33,-328.5 239.24,991.6 c 0,0 -1021.04,371.9 -1939.47,498.9 -768.94,106.4 -993.4,34.6 -1092.17,-317.5 -99.35,-354 77.4,-781.7 443.07,-844.5"
         style="fill:#efefee;fill-opacity:1;fill-rule:nonzero;stroke:none"
         id="path218" />
      <path
         d="m 30472.6,2664.8 v 0 c 56.7,0 100.1,41.9 91.5,88.4 l -1173.6,5450.4 h -420.2 l 1411.3,-5475.9 c 8,-36.4 46.3,-62.9 91,-62.9"
         style="fill:#ccccc9;fill-opacity:1;fill-rule:nonzero;stroke:none"
         id="path220" />
      <path
         d="m 27729.4,2664.8 h 2.3 c 52.7,0 94.7,36.4 92.5,80.1 l -330,5458.7 h -420.3 L 27637.1,2736 c 3.5,-40.2 43.8,-71.2 92.3,-71.2"
         style="fill:#ccccc9;fill-opacity:1;fill-rule:nonzero;stroke:none"
         id="path222" />
      <path
         d="m 22093.1,2664.8 v 0 c 44.6,0 83,26.5 91,62.9 l 1411.3,5475.9 h -420.2 L 22001.6,2753.2 c -8.6,-46.5 34.8,-88.4 91.5,-88.4"
         style="fill:#ccccc9;fill-opacity:1;fill-rule:nonzero;stroke:none"
         id="path224" />
      <path
         d="m 24885.1,2664.8 h 2.3 c 48.6,0 88.9,31.1 92.3,71.3 l 547.4,5467.5 h -420.2 l -314.3,-5458.9 c -2.1,-43.6 39.9,-79.9 92.5,-79.9"
         style="fill:#ccccc9;fill-opacity:1;fill-rule:nonzero;stroke:none"
         id="path226" />
      <path
         d="m 22265.5,7089.4 h 8034.7 c 147.1,0 267.4,120.3 267.4,267.4 v 0 c 0,147.1 -120.3,267.5 -267.4,267.5 h -8034.7 c -147.1,0 -267.4,-120.4 -267.4,-267.5 v 0 c 0,-147.1 120.3,-267.4 267.4,-267.4"
         style="fill:#c59261;fill-opacity:1;fill-rule:nonzero;stroke:none"
         id="path228" />
      <path
         d="m 28879.7,17141.6 h -3592.2 c -903.8,0 -1643.3,-739.5 -1643.3,-1643.2 V 9205.5 c 0,-903.7 739.5,-1643.2 1643.3,-1643.2 h 3592.2 c 903.7,0 1643.2,739.5 1643.2,1643.2 v 6292.9 c 0,903.7 -739.5,1643.2 -1643.2,1643.2"
         style="fill:#b16e2f;fill-opacity:1;fill-rule:nonzero;stroke:none"
         id="path230" />
      <path
         d="m 27595,16791.1 h -2524.8 c -784.3,0 -1426,-641.7 -1426,-1426 V 8988.3 c 0,-784.3 641.7,-1426 1426,-1426 H 27595 c 784.3,0 1426,641.7 1426,1426 v 6376.8 c 0,784.3 -641.7,1426 -1426,1426"
         style="fill:#854f23;fill-opacity:1;fill-rule:nonzero;stroke:none"
         id="path232" />
      <path
         d="m 24287.3,11832.3 h -2164 c -498.9,0 -907,-408.1 -907,-906.9 V 8393.1 c 0,-498.8 408.1,-907 907,-907 h 2164 c 498.9,0 907,408.2 907,907 v 2532.3 c 0,498.8 -408.1,906.9 -907,906.9"
         style="fill:#edc098;fill-opacity:1;fill-rule:nonzero;stroke:none"
         id="path234" />
      <path
         d="m 29996.6,8484.4 h -8401.5 c -282,0 -512.7,-230.7 -512.7,-512.6 v 0 c 0,-282 230.7,-512.7 512.7,-512.7 h 8401.5 c 282,0 512.7,230.7 512.7,512.7 v 0 c 0,281.9 -230.7,512.6 -512.7,512.6"
         style="fill:#efe8dc;fill-opacity:1;fill-rule:nonzero;stroke:none"
         id="path236" />
      <path
         d="m 27426.5,8571.3 c 0,0 752.6,17.6 752.6,875 0,857.3 -752.6,1932.6 -752.6,1932.6 h -3629.7 c 0,0 -663.2,-1060.4 -840.4,-1508.4 -177.2,-448 -362.4,-1299.2 774.5,-1299.2 1136.8,0 3695.6,0 3695.6,0"
         style="fill:#2a2c48;fill-opacity:1;fill-rule:nonzero;stroke:none"
         id="path238" />
      <path
         d="m 22204.7,3334.5 c 0,0 103.4,370.4 219.6,615.5 h 636.4 c 224.7,-419.8 172.1,-1284.4 190.8,-1757.4 l -2256.1,16.7 c -230,223.7 1209.3,1125.2 1209.3,1125.2"
         style="fill:#b1b1b0;fill-opacity:1;fill-rule:nonzero;stroke:none"
         id="path240" />
      <path
         d="m 23139.7,2692.6 c 46.6,47.6 27.2,497.5 93.8,498 69.6,0.5 89,-123.1 89,-123.1 23.5,-65.5 0,-1355.9 0,-1355.9 -825.2,0 -1857.5,0 -2682.8,0 -417.9,0 -373.2,531.6 -351.9,610.1 652.9,316.9 1105.8,484.7 1699,902.8 169.2,0 392.9,26.8 426.4,-109.6 33.4,-136.3 32.1,-280.1 73.4,-414.3 14.4,-46.8 620.2,-41.6 653.1,-8"
         style="fill:#2b2827;fill-opacity:1;fill-rule:nonzero;stroke:none"
         id="path242" />
      <path
         d="m 26705.2,10294.3 c -1313.8,79.8 -2565.3,-12.7 -3881.4,-0.1 -397.1,3.8 -714.9,-66.7 -895.3,-228.8 -180.5,-162.1 -243,-1102.5 357,-1560.6 h 4511.1 l -91.4,1789.5"
         style="fill:#2a2c48;fill-opacity:1;fill-rule:nonzero;stroke:none"
         id="path244" />
      <path
         d="m 23482.2,9551.7 c 358.1,-127.1 254.2,-589.1 277.3,-912.6 473.6,46.2 1513.3,0 1513.3,0 0,0 100,750.9 169.3,935.7 57.8,184.8 116.3,349.9 284,309.1 150.2,-392.8 78.1,-852 378.4,-1152.4 221.4,-18.1 460.4,1 677,68.9 l 15.1,-295.6 h -4511.1 c -70.4,53.7 -131.6,114.2 -184.7,179.2 41.8,182.6 121.1,353.4 260.9,498 288.8,311.9 727.8,519.9 1120.5,369.7"
         style="fill:#212234;fill-opacity:1;fill-rule:nonzero;stroke:none"
         id="path246" />
      <path
         d="m 26688.8,1812.4 c 103.9,230.6 196.6,446.6 276.9,691 l -37.7,1401.4 c -1.4,102.2 -97.4,184 -197,182.3 l -622,-7.7 c -88.8,-1.5 -352.4,-1199.6 -352.4,-1199.6 l -534.7,-792.4 c -50.6,-66.3 -98,-194.5 -124.6,-275 h 1591.5"
         style="fill:#b1b1b0;fill-opacity:1;fill-rule:nonzero;stroke:none"
         id="path248" />
      <path
         d="m 25155,2569.5 296,251.7 290.2,316.1 c 347.9,82.2 834.5,-164.8 834.5,-164.8 l 65.3,-302.8 c 21.4,3.8 192.9,23.6 212.4,33.1 143.4,70.1 70.6,641.8 99.2,641.9 6.7,0 97.6,-15.3 117.1,-154 63.4,-449.7 59.3,-1479.1 59.3,-1479.1 h -2151.2 c -1.1,8.8 104.9,763.3 177.2,857.9"
         style="fill:#2b2827;fill-opacity:1;fill-rule:nonzero;stroke:none"
         id="path250" />
      <path
         d="m 22000.5,3334.5 c 0,0 -542.9,4527.2 -453.8,5968.2 94.1,1522.1 2081.2,1185.7 2081.2,48.7 0,-1185.8 -270.8,-6016.9 -270.8,-6016.9 h -1356.6"
         style="fill:#2a2c48;fill-opacity:1;fill-rule:nonzero;stroke:none"
         id="path252" />
      <path
         d="m 25702.9,3334.5 -260.8,5895.9 c 0,1383 1985.8,1627.1 2092,285.2 106.2,-1341.8 -297.6,-6181.1 -297.6,-6181.1 h -1533.6"
         style="fill:#2a2c48;fill-opacity:1;fill-rule:nonzero;stroke:none"
         id="path254" />
      <path
         d="m 24794.7,17428.7 207.3,1712.2 h 1201.9 l 207.3,-1712.2 c 170.5,-42.9 278.4,-114.1 278.4,-231.2 0,-40.8 -40.7,-217.4 -563.5,-773.9 -209.7,-223.1 -421.7,-377.7 -523.2,-473.6 -101.5,95.9 -313.4,250.5 -523.1,473.6 -522.8,556.5 -563.5,733.1 -563.5,773.9 0,117.1 107.8,188.3 278.4,231.2"
         style="fill:#eba88c;fill-opacity:1;fill-rule:nonzero;stroke:none"
         id="path256" />
      <path
         d="m 26540.2,18365.3 c 134.2,13.2 270.1,26.9 397.3,73.6 127.1,46.8 246.7,129.6 313.3,250 66.5,120.3 70.1,281.2 -12.6,389 -82.8,107.7 -242.8,117.6 -357.4,44.1 -55.1,-35.4 -423.4,-764.9 -340.6,-756.7"
         style="fill:#fab59c;fill-opacity:1;fill-rule:nonzero;stroke:none"
         id="path258" />
      <path
         d="m 24704.4,18811.7 c -120.2,61.3 -241.8,123.5 -343.1,213.4 -101.4,89.9 -182.6,210.6 -200.7,346.9 -18.1,136.4 37.2,287.5 153.5,357.7 116.3,70.1 269,21.1 348.9,-89.2 38.4,-53 115.5,-866.6 41.4,-828.8"
         style="fill:#fab59c;fill-opacity:1;fill-rule:nonzero;stroke:none"
         id="path260" />
      <path
         d="m 26015,21399.7 c 22.2,-4 231.5,-52.3 253.3,-58.4 667.2,-188.1 1277.7,-448.6 935.4,-1483.2 0,0 -385.4,-1189.5 -498.5,-1410.9 -57.3,-112.3 -162.1,-206.9 -254.1,-290.1 -140.2,-126.8 -294.8,-240 -461.1,-330.1 -203.9,-110.4 -435.9,-192.9 -666,-139.9 -213.5,49.2 -359.9,147.8 -493.1,299.3 -132.5,150.8 -236.8,326.7 -321.2,508.2 -64.3,138.4 -126,287.8 -149.1,439.7 -2.7,18.1 -4.9,36.3 -5.3,54.6 -4.8,248.5 169.4,1486.7 169.4,1486.7 145.1,1080.1 808,1047 1490.3,924.1"
         style="fill:#fab59c;fill-opacity:1;fill-rule:nonzero;stroke:none"
         id="path262" />
      <path
         d="m 25306.5,17747.2 c 497.6,-93.1 1009,277 1256.9,695.6 86.8,142.2 149.1,651.7 176.2,807.7 100.7,579.2 -28.9,891.4 -28.9,891.4 0,0 -1729.6,209.8 -2186.3,332 0.2,1 0.3,1.7 0.3,1.7 145.1,1080.1 808,1047 1490.3,924.1 22.2,-4 231.5,-52.3 253.3,-58.4 667.2,-188.1 1277.7,-448.6 935.4,-1483.2 0,0 -385.4,-1189.5 -498.5,-1410.9 -57.3,-112.3 -162.1,-206.9 -254.1,-290.1 -140.2,-126.8 -294.8,-240 -461.1,-330.1 -203.9,-110.4 -435.9,-192.9 -666,-139.9 -213.5,49.2 -359.9,147.8 -493.1,299.3 -58.6,66.7 -111.7,138.4 -160,213.2 264.4,-317.9 561.3,-446.1 635.6,-452.4"
         style="fill:#ed8f6b;fill-opacity:1;fill-rule:nonzero;stroke:none"
         id="path264" />
      <path
         d="m 25409.6,19696.9 c 0,0 -260.9,-405.6 -256.5,-490.5 7.6,-145.8 237.5,-161.8 237.5,-161.8 0,0 -133.7,92.7 -107.4,188.8 26.2,96.1 126.4,463.5 126.4,463.5"
         style="fill:#e1503f;fill-opacity:1;fill-rule:nonzero;stroke:none"
         id="path266" />
      <path
         d="m 26467.4,19678.4 c -1.5,3.1 -3,6 -4.6,8.8 -86.3,156.9 -216.4,246 -376.5,254.8 -13.8,0.8 -28.8,0.6 -46,-13.3 -32.5,-26.4 -48.9,-63.5 -67.1,-119 197.7,22.6 366.4,-44.5 490.5,-195.8 11.7,16.5 10.5,18.4 10.3,35.4 -0.1,12.2 -3,21.3 -6.6,29.1"
         style="fill:#3e2519;fill-opacity:1;fill-rule:nonzero;stroke:none"
         id="path268" />
      <path
         d="m 24758,20071 c 2.7,2.2 5.3,4.1 7.9,5.9 145.8,104.2 301.6,128.3 449.7,66.9 12.8,-5.2 26.3,-11.9 35.7,-31.8 17.9,-37.9 16.7,-78.4 9.1,-136.4 -168.5,105.9 -349.6,118.4 -526.9,35.6 -3.5,20 -1.6,21.2 5.9,36.4 5.4,11 11.9,17.9 18.6,23.4"
         style="fill:#3e2519;fill-opacity:1;fill-rule:nonzero;stroke:none"
         id="path270" />
      <path
         d="m 26008.8,19543.8 c 18.4,79.5 90.6,130.8 161.3,114.4 70.8,-16.3 113.3,-94 95,-173.5 -1.5,-6.3 -7.2,-31 -8.6,-37.3 l -26.4,-114.3 c -18.2,-79.2 -87.5,-92.1 -152.7,-77.1 -65.1,15 -121.8,56.9 -103.5,136.1 l 26.4,114.4 c 1.4,6.3 7.1,30.9 8.5,37.3"
         style="fill:#3e2519;fill-opacity:1;fill-rule:nonzero;stroke:none"
         id="path272" />
      <path
         d="m 26149.6,19333.4 c -1.4,-6.4 2.6,-12.7 8.9,-14.2 6.4,-1.5 12.8,2.5 14.3,8.9 1.4,6.4 -2.5,12.7 -8.9,14.2 -6.4,1.5 -12.8,-2.5 -14.3,-8.9"
         style="fill:#ffffff;fill-opacity:1;fill-rule:nonzero;stroke:none"
         id="path274" />
      <path
         d="m 24836.4,19814 c 18.3,79.5 90.5,130.8 161.3,114.5 70.7,-16.3 113.2,-94 94.9,-173.5 -1.5,-6.4 -7.1,-31 -8.6,-37.3 l -26.4,-114.4 c -18.2,-79.2 -87.5,-92.1 -152.6,-77.1 -65.2,15.1 -121.8,57 -103.6,136.2 l 26.4,114.3 c 1.4,6.3 7.1,31 8.6,37.3"
         style="fill:#3e2519;fill-opacity:1;fill-rule:nonzero;stroke:none"
         id="path276" />
      <path
         d="m 24981.4,19604.1 c -1.5,-6.4 2.5,-12.7 8.9,-14.2 6.4,-1.5 12.7,2.5 14.2,8.9 1.5,6.4 -2.5,12.7 -8.9,14.2 -6.4,1.5 -12.7,-2.5 -14.2,-8.9"
         style="fill:#ffffff;fill-opacity:1;fill-rule:nonzero;stroke:none"
         id="path278" />
      <path
         d="m 25909.8,18931.2 c 0,0 -411.2,50.8 -606.1,94.5 -194.8,43.8 -427,107.2 -427,107.2 0,0 35.5,-553.3 404.6,-622.6 367.5,-69.1 651.6,416.8 628.5,420.9"
         style="fill:#ffffff;fill-opacity:1;fill-rule:nonzero;stroke:none"
         id="path280" />
      <path
         d="m 26851.2,18893.7 c -59.2,0 -15.3,189.4 9.2,288.2 60.4,243.7 79.1,487.5 139.4,731.1 -172,116.4 -294.2,305 -329.3,509.6 -105.7,-27.3 -216.1,-37 -325,-28.2 63.2,39.9 113.7,99.4 142.7,168.2 -576.7,-170 -1168.8,-105.5 -1752.8,37.6 0,0 -292.5,-878.5 -317.5,-938.9 -58.1,-140.5 -99.5,19.8 -77.2,140.7 49.4,267.8 98.7,535.5 148.1,803.3 34.9,189.3 71,382.1 161.4,552.2 60.2,113.2 149,216.2 257.7,281.5 -30.6,206.6 11.3,423.4 117.7,603.2 7.1,-125.9 68.9,-245.6 161.9,-330.2 -57.9,265.9 -37.4,548.8 59.9,803 -22.8,-243.3 101.4,-483.5 281.1,-649.2 70.7,-65.2 149.2,-120.4 232.5,-168.1 370.8,-61.9 773.8,7.7 1117.5,-148.3 453.5,-205.9 664,-760.5 617.4,-1256.3 -46.6,-495.9 -274.2,-867.2 -525.8,-1297 0,0 -55.8,-102.4 -118.9,-102.4"
         style="fill:#3e2519;fill-opacity:1;fill-rule:nonzero;stroke:none"
         id="path282" />
      <path
         d="m 27641,10943.1 c -12.7,-162.8 -139.4,-293.5 -301.8,-311.2 -470.9,-51.6 -1657.7,-79 -2087.5,-62.1 -414.9,16.4 -1233,23 -1690.8,64.8 -176.1,16.1 -310.3,164.5 -308.8,341.3 11,1318.2 93.4,5640.8 157.5,5957 0,0 767.5,481.9 1339.6,643.8 l -107.9,-754.6 c 92.5,-535.8 943.6,-418.8 943.6,-418.8 0,0 756.9,-155.5 899.8,377.9 l -42.2,728.6 c 557.6,-206.5 1401,-567 1401,-567 36.9,-322.3 -103.7,-4740.2 -202.5,-5999.7"
         style="fill:#efefee;fill-opacity:1;fill-rule:nonzero;stroke:none"
         id="path284" />
      <path
         d="m 23405.6,11440.2 c -50,1400 100,2790 90,4180 0,124.4 -68.7,244.6 -138.5,366.1 -49.8,-1427.3 -96.9,-4037.4 -105,-5010.4 -1.5,-176.8 132.7,-325.2 308.8,-341.3 45.6,-4.1 94.7,-7.9 146.5,-11.4 -17.5,18.6 -34.9,37.5 -51.8,57 -180,210 -240,490 -250,760"
         style="fill:#d4d8e0;fill-opacity:1;fill-rule:nonzero;stroke:none"
         id="path286" />
      <path
         d="m 27775.6,15970.2 c -70,-630 -57,-1372.9 -77,-1992.9 -10,-360 -13,-617.1 -153,-947.1 -200,-450 -426.7,-450.3 -749,-772.5 -299.6,-299.6 -234.1,-469.2 -201.2,-837.5 20.1,-224.7 -79.8,-470 -229.8,-610 -148.4,-124.8 -317.3,-197.2 -497.8,-243.4 515.9,6.7 1155.1,30.4 1471.4,65.1 162.4,17.7 289.1,148.4 301.8,311.2 75.5,962.2 175.3,3768 201.8,5182.5 -35.4,-49.4 -62.3,-101.2 -67.2,-155.4"
         style="fill:#d4d8e0;fill-opacity:1;fill-rule:nonzero;stroke:none"
         id="path288" />
      <path
         d="m 25118,15552.6 -328.8,538.7 260.6,342.4 390.6,-30.4 263.8,20.5 275.1,-359.7 -414,-511.5 311.7,-3897.1 -840.2,-948.6 -702.2,948.6 783.4,3897.1"
         style="fill:#76a0b1;fill-opacity:1;fill-rule:nonzero;stroke:none"
         id="path290" />
      <path
         d="m 25388.8,16407.3 c 0,0 -177.4,152.6 -321.9,350.7 -146.8,201.1 -283.7,949.5 -283.7,949.5 0,0 -296.9,-34.3 -322.5,-290.8 -27.6,-277.6 232.7,-1801.4 232.7,-1801.4 l 170.7,624.4 524.7,167.6"
         style="fill:#f7f7f7;fill-opacity:1;fill-rule:nonzero;stroke:none"
         id="path292" />
      <path
         d="m 25388.8,16407.3 c 0,0 500.9,145.4 648.3,325.5 157.7,192.7 373,936.4 373,936.4 0,0 273.5,4 299,-252.5 27.6,-277.6 -318.7,-1933.5 -318.7,-1933.5 l -393.3,718.1 -608.3,206"
         style="fill:#f7f7f7;fill-opacity:1;fill-rule:nonzero;stroke:none"
         id="path294" />
      <path
         d="m 30087,11838.7 h -2159.2 c -500.2,0 -909.4,-409.2 -909.4,-909.4 V 8368.5 c 0,-500.1 409.2,-909.4 909.4,-909.4 H 30087 c 500.1,0 909.3,409.3 909.3,909.4 v 2560.8 c 0,500.2 -409.2,909.4 -909.3,909.4"
         style="fill:#cc9334;fill-opacity:1;fill-rule:nonzero;stroke:none"
         id="path296" />
      <path
         d="m 28078.9,11556.7 c 412.3,222 1299.8,238.8 1756.4,282 h -1907.5 c -500.2,0 -909.4,-409.2 -909.4,-909.4 V 9806.2 c 3.2,9.4 6.9,18.6 9.6,28.1 227.3,789.3 370.9,1362.4 1050.9,1722.4"
         style="fill:#966c2a;fill-opacity:1;fill-rule:nonzero;stroke:none"
         id="path298" />
      <path
         d="m 27551.8,16906.9 c 0,0 392.5,261.7 773.8,-270.7 381.4,-532.4 1662.6,-3044.4 1970.4,-3729 307.7,-684.6 -1122.1,-880.4 -1441.4,-333.3 -319.4,547.1 -1771,3338.7 -1771,3338.7 0,0 49.8,691 468.2,994.3"
         style="fill:#efefee;fill-opacity:1;fill-rule:nonzero;stroke:none"
         id="path300" />
      <path
         d="m 27312,12395.5 c 0,0 -459.4,-290.6 -558.2,-565.4 -119.5,-332.6 -50,-787.5 -50,-848 0,-60.6 121.8,-113.3 162.2,0 40.4,113.3 86.8,665.2 124.8,736.1 53,98.7 427.1,410 427.1,410 l -105.9,267.3"
         style="fill:#fab59c;fill-opacity:1;fill-rule:nonzero;stroke:none"
         id="path302" />
      <path
         d="m 27439.1,12296.8 c 0,0 -459.5,-290.7 -558.2,-565.4 -119.5,-332.6 -50,-787.5 -50,-848.1 0,-60.5 121.8,-113.3 162.2,0 40.4,113.3 86.7,665.3 124.8,736.2 52.9,98.7 427.1,410 427.1,410 l -105.9,267.3"
         style="fill:#fab59c;fill-opacity:1;fill-rule:nonzero;stroke:none"
         id="path304" />
      <path
         d="m 27559.2,12148.6 c 0,0 -434,-274.6 -527.2,-534.1 -112.9,-314.2 -47.3,-743.9 -47.3,-801.1 0,-57.2 115.1,-107 153.2,0 38.2,107 81.9,628.4 117.9,695.4 50,93.2 403.5,387.3 403.5,387.3 l -100.1,252.5"
         style="fill:#fab59c;fill-opacity:1;fill-rule:nonzero;stroke:none"
         id="path306" />
      <path
         d="m 27691,12163.7 c 0,0 -416.7,-263.6 -506.2,-512.8 -108.4,-301.7 -45.4,-714.3 -45.4,-769.3 0,-54.9 110.5,-102.7 147.1,0 36.7,102.8 78.7,603.4 113.2,667.8 48.1,89.5 387.4,371.9 387.4,371.9 l -96.1,242.4"
         style="fill:#fab59c;fill-opacity:1;fill-rule:nonzero;stroke:none"
         id="path308" />
      <path
         d="m 27625.3,11788.9 c 0,0 281.2,-20.5 281.2,258.4 0,278.9 -253.9,461.3 -480.8,461.3 -226.9,0 -586.5,-262.9 -713.3,-321.4 -126.8,-58.5 -7.1,-182.3 106.1,-139.9 113.3,42.4 310.4,101.3 310.4,101.3 l 496.4,-359.7"
         style="fill:#fab59c;fill-opacity:1;fill-rule:nonzero;stroke:none"
         id="path310" />
      <path
         d="m 29897.8,11958 -2349.3,-328.5 -266.2,1103.4 c 0,0 1048,260.1 1966.4,387.1 768.9,106.3 993.4,34.6 1092.2,-317.5 99.3,-354 -77.4,-781.7 -443.1,-844.5"
         style="fill:#efefee;fill-opacity:1;fill-rule:nonzero;stroke:none"
         id="path312" />
      <path
         d="M 1324.23,1445.2 H 862.457 L 1898.9,10393.4 H 2998.84 L 1324.23,1445.2"
         style="fill:#d8d7d5;fill-opacity:1;fill-rule:nonzero;stroke:none"
         id="path314" />
      <path
         d="m 8338.39,1445.2 h -461.77 l 616.69,8948.2 H 9593.24 L 8338.39,1445.2"
         style="fill:#d8d7d5;fill-opacity:1;fill-rule:nonzero;stroke:none"
         id="path316" />
      <path
         d="m 31511.2,1445.2 h 461.7 l -1036.4,8948.2 h -1099.9 l 1674.6,-8948.2"
         style="fill:#d8d7d5;fill-opacity:1;fill-rule:nonzero;stroke:none"
         id="path318" />
      <path
         d="m 24104,1445.2 h 461.8 l -616.7,8948.2 h -1100 L 24104,1445.2"
         style="fill:#d8d7d5;fill-opacity:1;fill-rule:nonzero;stroke:none"
         id="path320" />
      <path
         d="M 32004.8,10342.2 H 830.563 v 479.6 H 32004.8 v -479.6"
         style="fill:#836d5f;fill-opacity:1;fill-rule:nonzero;stroke:none"
         id="path322" />
      <path
         d="M 32333.7,10543.6 H 501.66 c -172.637,0 -313.887,70.6 -313.887,156.9 v 6.4 c 0,86.4 141.25,157 313.887,157 H 32333.7 c 172.7,0 313.9,-70.6 313.9,-157 v -6.4 c 0,-86.3 -141.2,-156.9 -313.9,-156.9"
         style="fill:#ebd7c5;fill-opacity:1;fill-rule:nonzero;stroke:none"
         id="path324" />
      <path
         d="m 27363.8,10863.9 h -6207.5 c -49.8,0 -90.5,40.7 -90.5,90.4 v 0 c 0,49.7 40.7,90.4 90.5,90.4 h 6207.5 c 49.7,0 90.4,-40.7 90.4,-90.4 v 0 c 0,-49.7 -40.7,-90.4 -90.4,-90.4"
         style="fill:#7b84ab;fill-opacity:1;fill-rule:nonzero;stroke:none"
         id="path326" />
      <path
         d="m 19674.6,14628.4 h 4345.9 c 134.9,0 266.6,-107.9 292.5,-239.8 l 646.3,-3285 c 25.9,-131.8 -63.3,-239.7 -198.2,-239.7 h -4345.9 c -134.9,0 -266.5,107.9 -292.4,239.7 l -646.3,3285 c -26,131.9 63.2,239.8 198.1,239.8"
         style="fill:#cfd4ef;fill-opacity:1;fill-rule:nonzero;stroke:none"
         id="path328" />
      <path
         d="m 19541.7,14628.4 h 4345.9 c 134.9,0 266.5,-107.9 292.5,-239.8 l 646.2,-3285 c 26,-131.8 -63.2,-239.7 -198.1,-239.7 h -4345.9 c -134.9,0 -266.5,107.9 -292.5,239.7 l -646.3,3285 c -25.9,131.9 63.3,239.8 198.2,239.8"
         style="fill:#fdeae5;fill-opacity:1;fill-rule:nonzero;stroke:none"
         id="path330" />
      <path
         d="m 19541.7,14628.4 h 4345.9 c 134.9,0 266.5,-107.9 292.5,-239.8 l 646.2,-3285 c 26,-131.8 -63.2,-239.7 -198.1,-239.7 h -4345.9 c -134.9,0 -266.5,107.9 -292.5,239.7 l -646.3,3285 c -25.9,131.9 63.3,239.8 198.2,239.8"
         style="fill:#a9afd7;fill-opacity:1;fill-rule:nonzero;stroke:none"
         id="path332" />
      <path
         d="m 21373.1,13951.9 c 828.7,129.5 1644.5,64.7 2408.5,-271.9 197.6,-85.8 357.4,-211.4 490.4,-362.3 l -206.3,1048.4 c -15.3,77.6 -98.5,145.7 -178.1,145.7 h -4345.9 c -29.9,0 -54.7,-10 -69.7,-28.2 -14.7,-18 -19.8,-43.7 -14.1,-72.5 l 257.1,-1306.7 c 380.5,474.5 1048.9,736.7 1658.1,847.5"
         style="fill:#7f86bd;fill-opacity:1;fill-rule:nonzero;stroke:none"
         id="path334" />
      <path
         d="m 7907.58,12483.2 c 0,0 -477.89,-259.2 -594.8,-526.7 -141.53,-323.8 -102.68,-782.3 -106.74,-842.8 -4.06,-60.4 113.93,-121.2 161.82,-10.8 47.89,110.3 131.12,657.9 173.86,726.1 59.46,95 453.64,380.5 453.64,380.5 l -87.78,273.7"
         style="fill:#fab59c;fill-opacity:1;fill-rule:nonzero;stroke:none"
         id="path336" />
      <path
         d="m 8027.72,12376.2 c 0,0 -477.89,-259.2 -594.8,-526.7 -141.53,-323.8 -102.68,-782.3 -106.74,-842.8 -4.06,-60.4 113.93,-121.2 161.82,-10.8 47.89,110.3 131.12,657.9 173.86,726.1 59.46,94.9 453.64,380.5 453.64,380.5 l -87.78,273.7"
         style="fill:#fab59c;fill-opacity:1;fill-rule:nonzero;stroke:none"
         id="path338" />
      <path
         d="m 8137.66,12220.3 c 0,0 -451.41,-244.8 -561.85,-497.5 -133.69,-305.9 -96.99,-739.1 -100.83,-796.2 -3.83,-57 107.62,-114.5 152.86,-10.2 45.23,104.2 123.85,621.4 164.23,685.9 56.17,89.7 428.51,359.4 428.51,359.4 l -82.92,258.6"
         style="fill:#fab59c;fill-opacity:1;fill-rule:nonzero;stroke:none"
         id="path340" />
      <path
         d="m 8270.22,12226.5 c 0,0 -433.45,-235.1 -539.49,-477.7 -128.37,-293.7 -93.13,-709.6 -96.81,-764.4 -3.69,-54.9 103.34,-110 146.77,-9.9 43.44,100.1 118.93,596.7 157.69,658.6 53.94,86.1 411.46,345.1 411.46,345.1 l -79.62,248.3"
         style="fill:#fab59c;fill-opacity:1;fill-rule:nonzero;stroke:none"
         id="path342" />
      <path
         d="m 8179.53,11857 c 0,0 279.21,-39.3 297.91,239 18.69,278.2 -222.44,477.2 -448.87,492.4 -226.41,15.3 -602.82,-222.9 -733.24,-272.8 -130.41,-49.8 -19.31,-181.4 96.54,-146.7 115.85,34.7 316.5,80.2 316.5,80.2 l 471.16,-392.1"
         style="fill:#fab59c;fill-opacity:1;fill-rule:nonzero;stroke:none"
         id="path344" />
      <path
         d="M 10405.1,12868.6 8299.19,11776.7 7743.45,12632 c 0,0 838.98,690.6 1662.71,1116.2 689.64,356.3 925.24,363.3 1135.54,64.3 211.6,-300.8 187.3,-762.9 -136.6,-943.9"
         style="fill:#efefee;fill-opacity:1;fill-rule:nonzero;stroke:none"
         id="path346" />
      <path
         d="m 4382.7,10863.9 h 6207.5 c 49.7,0 90.4,40.7 90.4,90.4 v 0 c 0,49.7 -40.7,90.4 -90.4,90.4 H 4382.7 c -49.73,0 -90.41,-40.7 -90.41,-90.4 v 0 c 0,-49.7 40.68,-90.4 90.41,-90.4"
         style="fill:#7b84ab;fill-opacity:1;fill-rule:nonzero;stroke:none"
         id="path348" />
      <path
         d="M 12071.8,14628.4 H 7725.94 c -134.92,0 -266.54,-107.9 -292.48,-239.8 l -646.26,-3285 c -25.95,-131.8 63.22,-239.7 198.15,-239.7 h 4345.85 c 134.9,0 266.6,107.9 292.5,239.7 l 646.3,3285 c 25.9,131.9 -63.3,239.8 -198.2,239.8"
         style="fill:#cfd4ef;fill-opacity:1;fill-rule:nonzero;stroke:none"
         id="path350" />
      <path
         d="M 12204.8,14628.4 H 7858.89 c -134.93,0 -266.55,-107.9 -292.49,-239.8 l -646.25,-3285 c -25.95,-131.8 63.21,-239.7 198.14,-239.7 h 4345.91 c 134.9,0 266.5,107.9 292.5,239.7 l 646.2,3285 c 26,131.9 -63.2,239.8 -198.1,239.8"
         style="fill:#fdeae5;fill-opacity:1;fill-rule:nonzero;stroke:none"
         id="path352" />
      <path
         d="M 12204.8,14628.4 H 7858.89 c -134.93,0 -266.55,-107.9 -292.49,-239.8 l -646.25,-3285 c -25.95,-131.8 63.21,-239.7 198.14,-239.7 h 4345.91 c 134.9,0 266.5,107.9 292.5,239.7 l 646.2,3285 c 26,131.9 -63.2,239.8 -198.1,239.8"
         style="fill:#a9afd7;fill-opacity:1;fill-rule:nonzero;stroke:none"
         id="path354" />
      <path
         d="m 10373.4,13951.9 c -828.77,129.5 -1644.54,64.7 -2408.52,-271.9 -197.58,-85.8 -357.43,-211.4 -490.39,-362.3 l 206.26,1048.4 c 15.27,77.6 98.51,145.7 178.14,145.7 h 4345.91 c 29.9,0 54.6,-10 69.6,-28.2 14.8,-18 19.8,-43.7 14.2,-72.5 l -257.1,-1306.7 c -380.5,474.5 -1048.9,736.7 -1658.1,847.5"
         style="fill:#7f86bd;fill-opacity:1;fill-rule:nonzero;stroke:none"
         id="path356" />
      <path
         d="M 18381.3,10863.9 H 14037 c -34.8,0 -63.3,28.5 -63.3,63.3 v 0 c 0,34.8 28.5,63.2 63.3,63.2 h 4344.3 c 34.8,0 63.3,-28.4 63.3,-63.2 v 0 c 0,-34.8 -28.5,-63.3 -63.3,-63.3"
         style="fill:#7b84ab;fill-opacity:1;fill-rule:nonzero;stroke:none"
         id="path358" />
      <path
         d="m 18135.7,10977.2 h -3853.1 c -259.6,0 -478.8,192.7 -512,450.2 l -374.4,2901.5 c -23.9,185.3 120.4,349.5 307.2,349.5 h 5011.5 c 186.8,0 331.1,-164.2 307.2,-349.5 l -374.4,-2901.5 c -33.2,-257.5 -252.4,-450.2 -512,-450.2"
         style="fill:#a9afd7;fill-opacity:1;fill-rule:nonzero;stroke:none"
         id="path360" />
      <path
         d="m 13681.5,13155.4 c 623.7,457.4 1525.1,744.8 2527.7,744.8 1002.5,0 1903.9,-287.4 2527.6,-744.8 l 153.6,1190.5 c 6.7,51.3 -8.5,100.8 -42.6,139.6 -34.1,38.7 -81.3,60.1 -132.9,60.1 h -5011.5 c -51.6,0 -98.8,-21.4 -132.9,-60.1 -34.1,-38.8 -49.2,-88.4 -42.6,-139.6 l 153.6,-1190.5"
         style="fill:#7f86bd;fill-opacity:1;fill-rule:nonzero;stroke:none"
         id="path362" />
    </g>
  </g>
</svg>
